<svg xmlns="http://www.w3.org/2000/svg" viewBox="0 0 122.41 121.54"><defs><style>.a{fill:#e2def0;}.b{fill:#bcb3d9;}.c{fill:#2d2d2d;}.d{fill:#161617;}</style></defs><title>lb-rt-h</title><path class="a" d="M33.76,86.66v.07a6.73,6.73,0,0,0,.1.89c0,.2,0,.41.07.62a1.38,1.38,0,0,0-.84.18,0,0,0,0,1,0,0,1.44,1.44,0,0,0-1.38-1,1.39,1.39,0,0,0-.53.1l0-.54c0-.1,0-.2,0-.3-3.56,0-7.11.13-10.67.2L15.69,87l0,.77a2,2,0,0,0-.89.51l-.31.39a2,2,0,0,0-.23.64,2.85,2.85,0,0,0-.65,0,2,2,0,0,0-.68.11,1.92,1.92,0,0,0-.26-.82,2,2,0,0,0-1.19-.91,2.08,2.08,0,0,0-1,0,2,2,0,0,0-1.19.91c-.17.4-.36.78-.49,1.19,0-.3-.05-.59-.08-.89-.05-.56-.13-1.13-.21-1.69l-4.17.07c0,.3-.07.6-.11.89a16.36,16.36,0,0,0,0,2.62,2.32,2.32,0,0,0-.81.78l-.08.11c0-.3,0-.59,0-.89a2.16,2.16,0,0,0-1.24-1.94c0,.4,0,.81.05,1.22,0,.58,0,1.16,0,1.75.19,1.66.37,3.33.55,5,.09.78.1,1.57.15,2.35.09,1.51.17,3,.26,4.52.13,2.16.08,4.34.1,6.51,0,1.74,0,3.49-.06,5.23H6.81c4.06,0,8.1.12,12.15.26v-.06l0-.24c0,.1,0,.2,0,.3l1.77.07c2.13.09,4.26.22,6.39.34l1.44.08c0-.36,0-.73,0-1.1l0,0c0,.21,0,.41,0,.62s0,.34,0,.51c2.38.15,4.77.35,7.13.66h0a4,4,0,0,0,0-.49c0-.14,0-.27,0-.41a.79.79,0,0,0,.31.23Q36,113,35.9,109.91l-.21-7c0-1.3-.07-2.6-.11-3.9s-.06-2.84-.19-4.26c0-.13,0-.27-.08-.4l-.06,0a3.79,3.79,0,0,1,0-5.36,4,4,0,0,1,.58-.48c-.1-.49-.19-1-.28-1.47a3.6,3.6,0,0,1-.91-.3Z"/><path class="b" d="M2.18,45c.26,2.1.53,4.19.79,6.28.06.45.11.9.16,1.35,0-2.4.06-4.81.09-7.21,0-.73,0-1.46,0-2.19l-1.3,0c.08.6.17,1.19.24,1.79Z"/><path class="a" d="M5.22,43.43c-.3,1.12-.61,2.23-.82,3.37C4.14,48.21,4,49.62,3.78,51c-.08.66-.16,1.32-.23,2a1.54,1.54,0,0,0-.19.17l-.15.19c.15,1.53.28,3.06.43,4.59.19,2,.32,3.89.46,5.84.15,2.11.28,4.2.35,6.3L4.57,74c0,.45,0,.91,0,1.36h.06l1.89,0c0-.3,0-.59,0-.89a2.2,2.2,0,0,1,.25.17,2.15,2.15,0,0,0,1.68.22,2.05,2.05,0,0,0,.41-.16l.12.62,3.07-.06H13.2c1.7,0,3.41.06,5.12.09,4.12.07,8.24.23,12.36.44l2.61.13.39-3.71c.48-4.48,1-9,1.36-13.44l.62-7.29c.15-1.77.31-3.55.58-5.32l-.11-1c0-.06,0-.13,0-.19q-3.16-.2-6.33-.43c0,.37-.07.74-.1,1.11a1.86,1.86,0,0,0-1-.48V45a2.06,2.06,0,0,0-.11-.61c-1.73-.14-3.45-.29-5.18-.4-.87-.05-1.74-.12-2.6-.18-.1.63-.2,1.25-.29,1.88a1.79,1.79,0,0,0-.3-.38,2.06,2.06,0,0,0-3.39.75,2.12,2.12,0,0,0-2.62-.37,2.33,2.33,0,0,0-.69.64l0-.48c.06-.79.13-1.58.19-2.37-2.8-.1-5.6-.2-8.39-.24a.81.81,0,0,0-.07.22Z"/><path class="a" d="M33,4c-2.19.08-4.39.2-6.58.31l-10.68.48c-.09,1.43-.13,2.85-.18,4.28-.08,1.87-.11,3.74-.17,5.61a90.71,90.71,0,0,0,.21,10c0,.65.12,1.29.19,1.94V27c0,.11,0,.21,0,.32l-.12-.87a105.68,105.68,0,0,1-.77-12.19c0-2.87-.09-5.74-.1-8.62a2,2,0,0,0-.16-.76l-.83,0-2.76.14a3.51,3.51,0,0,0-.1.58c0,.31,0,.61,0,.91a2.25,2.25,0,0,0-1.8-.94,2.12,2.12,0,0,0-.9.2.78.78,0,0,0,0-.16c0-.15,0-.29-.05-.44l-6.54.37c.26,2.25.54,4.5.82,6.75.46,3,.93,6.09,1.33,9.14.25,1.91.49,3.81.74,5.72a49.2,49.2,0,0,1,.34,5q0,.7,0,1.41l2.33-.11c1.18,0,2.36-.07,3.54-.07h1.11c4.38.07,8.76.2,13.14.48,2.17.14,4.35.27,6.52.43,1.48.11,3,.21,4.44.35l.29,0v-.56l0-5.14V27.5a3.7,3.7,0,0,1-.76-2.25A3.76,3.76,0,0,1,36.19,23c0-.91,0-1.82,0-2.73l-.08-8c0-.87-.06-1.75-.09-2.62s0-1.53-.07-2.3c0-.21,0-.42,0-.63s-.08-.66-.13-1a.78.78,0,0,0-1.54.21c0,.67,0,1.35,0,2,0-.49-.09-1-.17-1.46-.12-.79-.31-1.57-.46-2.36l0-.12L33,4Z"/><path class="a" d="M77,87.36v-.1h-.55c-1.35,0-2.7-.08-4.06-.09-3.37,0-6.74,0-10.11,0H54.17l-.06.14c-.16.42-.28.85-.4,1.28-.27.94-.49,1.89-.7,2.84-.17.79-.34,1.58-.49,2.38-.09-.59-.18-1.18-.29-1.77a.66.66,0,0,0-.3-.44v-.34c0-.69,0-1.38,0-2.08l0-1.34v-.65h0l-1.49,0H50.1c-.86,0-1.73,0-2.59.09h-.27c-.08.2-.15.41-.21.61a11.74,11.74,0,0,0-.41,2.44c-.06.75-.07,1.5-.08,2.25s0,1.25-.06,1.88l-.09,3.1c0,.14,0,.29,0,.43s0,.42,0,.63c0,.62-.09,1.24-.13,1.85a2,2,0,0,0-.76.27c.1,1.17.19,2.35.28,3.53.07.78.15,1.57.17,2.35l.12,4.33c0,1,0,1.91,0,2.87,0,.36,0,.73,0,1.1,0,1,0,2-.1,3l1.12-.08c1.59-.1,3.18-.17,4.78-.2v0l0-.16.06,0a1,1,0,0,0,.26-.64c0-.13,0-.26,0-.38v0l.12-1c0-.2,0-.41,0-.61a2,2,0,0,0,.05-.24c.14-.89.29-1.79.43-2.68l.3-1.79c.13,1.17.26,2.34.35,3.51s.15,2.39.17,3.59c0,.14,0,.28,0,.41h4.47c.09-2.66.22-5.32.35-8,0-.43,0-.86.07-1.29v.26c0,1.47,0,2.94.07,4.4,0,1.29.07,2.58.11,3.87,0,.24,0,.49,0,.74l3.52,0c0-1.76,0-3.51.08-5.27,0-1.29,0-2.59.09-3.88.06-1.49.13-3,.19-4.47l.15-3.59c0-.7.11-1.39.17-2.09.13-1.53.26-3.06.38-4.59,0-.37.07-.75.1-1.12,0,.32,0,.65,0,1s0,.51,0,.77c0,.76,0,1.51,0,2.26,0,.34,0,.68,0,1-.05.71-.09,1.41-.11,2.11,0,1.39-.06,2.78-.1,4.17l-.12,5c0,1,0,1.9,0,2.85,0,1.42,0,2.84,0,4.27,0,.54,0,1.09,0,1.64,1,0,2.08,0,3.11.1h.09l0-1.86c0-.45,0-.9,0-1.36a1.47,1.47,0,0,0,.72-.06c0,.15,0,.3,0,.45a4,4,0,0,0,.46,1.7,1.48,1.48,0,0,0,2.77-.75c0-2,.08-3.9.14-5.85,0-1.07,0-2.14.1-3.21v.22c0,1.49,0,3,.08,4.46s.09,2.75.13,4.13c0,.51.06,1,.11,1.53a1.82,1.82,0,0,0,.24.84l2.14.14q1.5.12,3,.27v-1l.26-.17.21-.17q0-3.21,0-6.42c0-1.84,0-3.69,0-5.53,0-2.09,0-4.19.09-6.28l.15-4.4c0-.86,0-1.72.1-2.58.09-1.35.19-2.71.29-4.06l0-.51A1.13,1.13,0,0,0,77,87.36Zm-22.67,20.7L54,105c.21-1.27.42-2.54.65-3.8.1-.6.21-1.2.32-1.8,0,1.18,0,2.37-.06,3.56q-.11,4.27-.18,8.54C54.6,110.37,54.48,109.22,54.34,108.06Z"/><path class="a" d="M46,47.66c-.08,1,0,2,0,3,0,.6,0,1.2-.06,1.8-.06,1.83-.13,3.67-.2,5.5,0,1-.05,2.06-.07,3.09l0,1.38a1.91,1.91,0,0,0-.28.92c-.13,1.5-.14,3-.12,4.51v.58c-.05.55-.1,1.1-.14,1.65-.12,1.5-.23,3-.38,4.49a3.79,3.79,0,0,1,1,1.34h.06a1.41,1.41,0,0,0,1.08-.14,1.33,1.33,0,0,0,.64-.83l.06-.32a1.72,1.72,0,0,0,1.11-.73c0,.08.07.15.11.22a1.6,1.6,0,0,0,1.84.75,1.62,1.62,0,0,0,.51-.25c0,.18.06.36.08.54a1.62,1.62,0,0,0,1.57,1.19,1.61,1.61,0,0,0,1.14-.47l.26-.33a1.34,1.34,0,0,0,.16-.39c.11.58.22,1.16.36,1.74,0,.22.11.44.16.66l4.07.06c0-.31,0-.62,0-.93,0-.14,0-.28,0-.41a1.68,1.68,0,0,0,.41.17,1.54,1.54,0,0,0,.85,0,1.61,1.61,0,0,0,1.18-1.55c0-1.3,0-2.61,0-3.91l0,.26c0,.62.09,1.23.13,1.85.08,1.18.3,2.37.46,3.55a1.44,1.44,0,0,0,.39.66,1.46,1.46,0,0,0,.69.4l.68,0a1.52,1.52,0,0,0,1.16-1.08l.35.37a1.58,1.58,0,0,0,1.51.4,1.62,1.62,0,0,0,.68-.4,1.68,1.68,0,0,0,.46-1.1l0-.32c0,.32.07.63.1,1l.06.39a1.57,1.57,0,0,0,.38.66,1.43,1.43,0,0,0,.44.3l1.1,0a1.52,1.52,0,0,0,.89-.83,1.72,1.72,0,0,0,.33.26,1.56,1.56,0,0,0,1.16.15,1.41,1.41,0,0,0,.54-.29,1.71,1.71,0,0,0,.21.26,1.44,1.44,0,0,0,1,.43,1.48,1.48,0,0,0,1.28-.75v.08a1.43,1.43,0,0,0,1,1c.41-1.7.77-3.41,1-5.13A71.56,71.56,0,0,0,77.87,61c-.1-2.15-.15-4.31-.37-6.45s-.43-4.46-.7-6.68l-.68-.06,0,.48c0,.31,0,.63.07.94l0,.22a25.24,25.24,0,0,0-.11,3c0,.68,0,1.36,0,2s0,1.42-.07,2.13l-.3-5.85c0-1-.09-2-.14-2.94v-.08c-.85-.06-1.71-.13-2.56-.17l-6-.36s0,.08,0,.12c-.08.79-.16,1.59-.25,2.38-.1,1-.21,1.94-.31,2.91,0,.42-.11.85-.14,1.27l-.09,1.22-.06-4.33c0-1,0-2,0-3v-.57q-3.24-.18-6.48-.31l-3.26-.13c0,.33,0,.65,0,1l0,.52L56,53.66c-.09,1.84-.14,3.68-.19,5.53l-.09-1.25c-.08-1.16-.16-2.32-.25-3.47s-.17-2.19-.26-3.29c0-.37-.05-.74-.08-1.12-.08-1-.26-2-.4-2.92a1.62,1.62,0,0,0-.25-.51l-1.19,0-4.48-.11-2.66-.06c-.07.41-.11.83-.14,1.24Z"/><path class="a" d="M49.59,3.82l0,2.7a1.58,1.58,0,0,0-1-.08,1.51,1.51,0,0,0-1.06,1.1c0-.08,0-.16,0-.24,0-1.06-.12-2.13-.19-3.19A1.73,1.73,0,0,0,47,3.19v.09q-.12,6.12-.46,12.24c-.12,2.28-.26,4.55-.36,6.83-.07,1.41-.13,2.81-.2,4.22a39.3,39.3,0,0,0-.05,5.09,1.16,1.16,0,0,1,0,.18l.12.4h.82l3.14,0q6.48.09,12.95.22c0-.05,0-.11,0-.16s0-.15,0-.23c0,.13.05.26.07.4H64c.92,0,1.83.08,2.75.11s1.93.06,2.89.13l1.37.11c0-1,0-2,0-2.95v-.6c0-.77,0-1.55,0-2.33.1.74.21,1.47.34,2.2.21,1.26.45,2.52.74,3.77l1.56.12,1.43.13c0-.12.05-.25.08-.37.13-.3.25-.6.38-.91a3.88,3.88,0,0,1,1.65-1.51c.11-.76.17-1.54.21-2.31.07-1.2.09-2.41,0-3.62,0-1.77-.09-3.55-.14-5.32,0-.39,0-.78-.07-1.17-.07-1-.14-2-.2-3,0-.63-.09-1.26-.13-1.89s-.12-1.22-.18-1.83l-.32-3.31c-.09-.92-.24-1.83-.36-2.75-.09-.65-.18-1.3-.28-1.94h-.17l-2.75-.12c0,.79,0,1.57,0,2.36,0,.61,0,1.21,0,1.81l.12,4.32c0,2.39.13,4.78.21,7.16l-.06-.87c0-.32-.06-.65-.07-1C73,14,72.9,11,72.74,8.1c-.08-1.29-.12-2.59-.22-3.88,0-.38-.07-.77-.1-1.15l-4.18-.2L68.15,7C68.09,5.62,68,4.24,68,2.86L64.6,2.69h-.1v1a1.59,1.59,0,0,0-1.39-.81A1.63,1.63,0,0,0,62,3.34a1.69,1.69,0,0,0-.47,1.14Q60.9,13,60.33,21.53c-.1-2.15-.13-4.3-.16-6.46,0-1.13,0-2.27,0-3.41s0-2.44,0-3.66,0-2.57-.06-3.86a1.69,1.69,0,0,0-1.67-1.67,1.66,1.66,0,0,0-1.6,1.21,1.64,1.64,0,0,0-.76,0,1.59,1.59,0,0,0-.75.44l-.27.34a1.73,1.73,0,0,0-.23.86c-.12.92-.25,1.84-.34,2.76-.08.74-.15,1.48-.22,2.22-.18,1.83-.34,3.66-.45,5.49,0-.34-.07-.67-.1-1s-.09-.75-.1-1.12c-.06-1.58-.13-3.16-.18-4.74-.05-1.27-.12-2.55-.15-3.82l-.06-2.91L52,2.21l-2.43,0c0,.55,0,1.1,0,1.65Z"/><path class="b" d="M99.56,118.42l1.3,0a.83.83,0,0,0-.63-.28.86.86,0,0,0-.67.33Z"/><path class="a" d="M102.6,46.43a3.68,3.68,0,0,1-2.67,1.11l-.24,0a2,2,0,0,0,0,.35q-.3,4.93-.63,9.87c0-.67,0-1.32-.05-2,0-1.24,0-2.47-.09-3.7-.06-1.54-.13-3.09-.21-4.63l-2.23-.19L94.07,47l-.21,1.64v.07c0,.11,0,.22,0,.34,0-.12,0-.23,0-.34q-.6,4.39-1.18,8.8c-.11.89-.19,1.79-.27,2.69l-.06-3.43c0-1.37,0-2.75,0-4.12,0-.62.07-1.24.11-1.86a1.42,1.42,0,0,0-.12-.65V48.93c0-.68,0-1.36,0-2l-3.93-.33c0,.67-.1,1.34-.14,2-.1,1.57-.2,3.14-.29,4.7-.07,1.12-.16,2.23-.21,3.35,0,1.36-.11,2.71-.17,4.07l0,0a1.62,1.62,0,0,0-.78,1c-.16,1.23-.38,2.45-.47,3.69-.07.78-.13,1.56-.19,2.34-.12,1.45-.24,2.9-.35,4.35-.1,1.18-.19,2.37-.28,3.55l.07,0c1,0,1.92.07,2.87.12l6.12.37c0-.12,0-.25,0-.38.06-1.27.1-2.54.17-3.81L95,66.82c0-1,.18-2,.28-3.08l.45-4.81,0,1c.06,2.81.16,5.63.24,8.45,0,.37,0,.75.08,1.11.07.95.13,1.91.2,2.86l.18,2.5c0,.47.06.94.1,1.41,1.39.11,2.78.24,4.16.36l1.8.14a1.94,1.94,0,0,0,.31-.26l.25-.32a4.87,4.87,0,0,0,.21-.53l0-.16a3,3,0,0,0,.06-.59,3.39,3.39,0,0,0,0-.55c0-.39,0-.77,0-1.16v-.32a1.7,1.7,0,0,0,.75.19,1.54,1.54,0,0,0,.81-.22,1.58,1.58,0,0,0,.73-1,13,13,0,0,0,.23-1.5s0,0,0,0a4.26,4.26,0,0,0,.28.78,6.91,6.91,0,0,0,.38.65,1.5,1.5,0,0,0,1.69.68,1.27,1.27,0,0,0,.4-.17c0,.27,0,.53.08.8,0,.58.17,1.15.27,1.73a1.49,1.49,0,0,0,.36.62,1.45,1.45,0,0,0,1,.41,1.43,1.43,0,0,0,1.26-.79c0,.25,0,.49,0,.73s0,.55.07.82a4,4,0,0,1,1.2-1.12,3.81,3.81,0,0,1,1.73-.51l0-2c0-1.33.05-2.65.08-4l0-1.86c0,.45,0,.9,0,1.35,0,.28,0,.56,0,.85l.29,4.78c0,.31,0,.63,0,.94l.66.09,2.68.45a.49.49,0,0,0,0-.12c0-.95,0-1.9.05-2.86a.77.77,0,0,0,.52-.21,2,2,0,0,0,.28-.23c.08.6.17,1.19.25,1.78h0a.36.36,0,0,1,0,.1h0v0h0c.08.54.21,1.07.31,1.6A.75.75,0,0,0,120,76l1.41.25h0c-.19-1.35-.37-2.7-.56-4.06-.44-3.25-.86-6.51-1.29-9.77-.07-.53-.15-1.06-.23-1.59-.31-2.16-.57-4.35-1-6.5-.23-1.25-.45-2.51-.68-3.76-.08,1.05-.18,2.11-.25,3.17-.13,1.7-.25,3.4-.37,5.09,0,.24,0,.48,0,.71a.28.28,0,0,0,0-.09L116.81,54c0-1.22-.12-2.44-.18-3.66-.07-1.41-.15-2.83-.24-4.24l-6.09-.16-7.11-.22a3.88,3.88,0,0,1-.59.76ZM97.15,48h0v0Z"/><polygon class="b" points="119.57 74.14 119.57 74.14 119.57 74.14 119.57 74.14 119.57 74.14"/><path class="a" d="M120.87,110.62c0-.8,0-1.6,0-2.4,0-1.24,0-2.48,0-3.72,0-1,0-2,0-3.08,0-1.22,0-2.44-.09-3.66s-.09-2.58-.14-3.87c0-.56-.05-1.12-.08-1.67,0-.33,0-.65,0-1,0-.5-.1-1-.15-1.5v-.27c0-.41,0-.82,0-1.22L117.5,88a8,8,0,0,0-.19.85,25.16,25.16,0,0,0-.27,2.74c0,.59-.1,1.18-.15,1.78,0-.37,0-.75,0-1.12,0-.69,0-1.38,0-2.08,0-.53,0-1.07,0-1.61,0-.21,0-.42,0-.63l-7.47-.73c-1.15-.12-2.31-.22-3.46-.32-.06.13-.11.27-.17.4a8.62,8.62,0,0,0-.43,1.48c-.06.33-.12.66-.17,1a1.36,1.36,0,0,0-1.57,1c-.14.61-.3,1.21-.43,1.82-.05-.71-.16-1.42-.25-2.14a1.56,1.56,0,0,0-.38-.64,1.24,1.24,0,0,0-.35-.25l0-.74c0-.39,0-.77,0-1.15s0-.7,0-1v0c-1-.09-2-.18-3-.25,0,.12,0,.25-.05.38-.12.92-.21,1.85-.29,2.78s-.14,1.6-.19,2.4c-.12,1.62-.23,3.23-.34,4.85,0,.22,0,.43,0,.64a.07.07,0,0,1,0,.05v0c0-2.32-.12-4.63-.2-6.94,0-.76-.09-1.52-.14-2.28,0-.39,0-.78,0-1.17a6.42,6.42,0,0,0,0-.76L94,86c-.19.46-.39.92-.56,1.39a1.42,1.42,0,0,0-1,.15,1.35,1.35,0,0,0-.64.82c0,.31-.09.6-.14.9a.8.8,0,0,0-.18.27c-.19.41-.4.82-.57,1.24a9.63,9.63,0,0,0-.32,1.2,25.43,25.43,0,0,0-.35,2.88c-.06.7-.12,1.4-.16,2.09l-.06.9c-.07.1-.13.2-.2.29,0-.2,0-.4,0-.6,0-.9,0-1.81-.07-2.71,0-1.45,0-2.89-.11-4.33a.43.43,0,0,0,0,0,8.09,8.09,0,0,0,.55-2.28c0-.4.1-.8.14-1.21s.09-.76.13-1.14l-1.56-.07a3.75,3.75,0,0,1-1.44.68,3.65,3.65,0,0,1-.5,2.4,3.17,3.17,0,0,1-.16.66l-.06.16a1.36,1.36,0,0,0,0,.8,1.3,1.3,0,0,0,.27.52q-.39,8.24-.52,16.46c0,2.13-.08,4.25-.07,6.38a1.38,1.38,0,0,0,2.71.36c.06-.17.11-.34.16-.52a7,7,0,0,0,.11-.8c.06-.5.09-1,.12-1.5s0-.76.07-1.14c0-.57.08-1.14.11-1.71l.12,3c0,.5.07,1,.11,1.5,0,.11,0,.22,0,.33s0,.33,0,.5c0,.55,0,1.09-.07,1.64,0,.2,0,.41,0,.62s0,.7,0,1a1.49,1.49,0,0,0,.62,1.16c0,.21,0,.42,0,.63,1.5-.09,3-.14,4.49-.21l.36,0,0-.67v.67c3.59-.18,7.18-.36,10.77-.46.06-.74,0-1.48,0-2.23,0-.27,0-.54,0-.81,0-.76,0-1.52,0-2.28,0-1.32.06-2.64.09-4,0-.26,0-.51,0-.76,0,.55,0,1.11,0,1.66,0,2.6,0,5.19.09,7.79,0,.19,0,.39,0,.58l1.45,0,1.45,0q0-3.12.12-6.25c0-.58,0-1.16,0-1.74l0,.66c0,.71.07,1.42.1,2.12,0,.89.1,1.77.18,2.65.05.5.1,1,.18,1.48s.14.72.21,1.08H113s0-.08,0-.13a.65.65,0,0,0,.16.13l1.48,0a1.29,1.29,0,0,0,.57-.77c.06-.42.13-.84.15-1.27a1.48,1.48,0,0,0,0-.21,2.56,2.56,0,0,0,.38.8,1.26,1.26,0,0,0,1.15.59c0,.31,0,.61,0,.92l.78,0,1.43,0c0-.12,0-.25,0-.37,0-.53.07-1.06.1-1.59.05-.86.11-1.71.16-2.56a.8.8,0,0,0,.85.29.81.81,0,0,0,.58-.76c0-.56.07-1.11.07-1.67ZM95.19,99.71c-.06-.45-.14-.9-.2-1.34l-.09-.65a3.09,3.09,0,0,0-.25-.78,2.63,2.63,0,0,0-.2-.33c0-.32,0-.65,0-1s.08-.52.13-.79c.15-.88.31-1.75.49-2.63,0,.86,0,1.71.08,2.56,0,1.76.06,3.52.06,5.27C95.22,99.94,95.2,99.82,95.19,99.71Z"/><path class="b" d="M119.53,88.3a1.16,1.16,0,0,0,.42-.07l-1-.1a1.23,1.23,0,0,0,.62.17Z"/><path class="b" d="M96.24,51.14v0Z"/><path class="b" d="M95,60.16l0-.22,0-.2-.06.42Z"/><path class="b" d="M119.59,74.27s0-.07,0-.1l0,.1Z"/><path class="a" d="M90.26,3c0,.56,0,1.11-.05,1.67a1.72,1.72,0,0,0-2.92,1.23c0,1.48-.12,3-.13,4.45l0,2.4-.06,4.27L87,17c.2,2.21.37,4.42.55,6.64s.22,4.35.32,6.52c0,1.08.07,2.17.07,3.25l.1,0a1.69,1.69,0,0,0,.56-.09c.09.43.19.85.3,1.28,3.72-.13,7.45-.21,11.17-.26l1.44,0c0-.1.06-.2.08-.3a4.94,4.94,0,0,0,.12-.94,11.75,11.75,0,0,0,0-1.19h0c.08.81.17,1.62.28,2.42,3.55,0,7.11-.07,10.66-.2l1.66-.05V34l.27-2c.07-.52.12-1,.16-1.57,0,.41,0,.81.06,1.22s.07.65.12,1c0,.16.05.31.08.47a3.07,3.07,0,0,0,.22.6,1.22,1.22,0,0,0,.18.36l1.65-.08c0-.05,0-.1.07-.14a4,4,0,0,1,1.33-1.34c-.09-1.18-.18-2.36-.26-3.54-.14-1.86-.3-3.71-.45-5.57q-.78-9.72-1.47-19.45l-1.94-.11-.68,0c-.06.17-.1.34-.15.52a11.94,11.94,0,0,0-.23,1.59c-.13,1.1-.16,2.22-.19,3.33s-.06,2.2-.11,3.3l-.12,2.36,0-2.46c0-1.95-.14-3.9-.22-5.84a1.49,1.49,0,0,0-1.07-1.4h0c0-.51,0-1,0-1.51-1.89-.1-3.78-.17-5.67-.25v.37c-.09,1.74-.17,3.48-.26,5.22,0,1.16-.15,2.32-.23,3.48q-.18,2.89-.38,5.77c-.14,2.12-.32,4.24-.49,6.35l-.12-3c0-1,0-1.95-.05-2.93q0-3-.07-6.09c0-1.37,0-2.75,0-4.12,0-1.18,0-2.36,0-3.53,0-.54,0-1.07-.05-1.6l-3.93-.14c0,.79,0,1.59,0,2.39,0,.25,0,.5,0,.74,0-.15,0-.3,0-.45,0-.89,0-1.79,0-2.68l-3.94-.11a1.07,1.07,0,0,0-.16.14,1.64,1.64,0,0,0-.21.25l0-.4L90.93,3h-.67V3Z"/><path class="c" d="M34.12.76l-2.85,0c-1.92,0-3.85,0-5.78,0L13.7.76H1.5A.52.52,0,0,0,1,1.29L1,4.22c0,1,0,2,0,3,0,2,0,4,0,5.94Q.94,19.1.93,25q0,5.67,0,11.34a.6.6,0,0,0,.6.6c2,0,3.94.08,5.91.09l5.93,0,12,0,11.29,0a.77.77,0,0,0,0-1.54l-23.83.07H7.17c-1.69,0-3.38,0-5.07.07,0-7.56,0-15.13,0-22.69V4.22c0-.8,0-1.61,0-2.41,7.66,0,15.33,0,23,0,2,0,4,0,6,0q1.48,0,3,0h2q0,5.7,0,11.41c0,3.92,0,7.85,0,11.77,0,2.25,0,4.51,0,6.76a.44.44,0,1,0,.87,0q0-5.93,0-11.85l0-11.81c0-2.27,0-4.55,0-6.82A.5.5,0,0,0,36.71.8a1.41,1.41,0,0,0-.35-.05h-1l-1.26,0Z"/><path class="c" d="M.6,42.3a.56.56,0,0,0-.56.56c0,1.86,0,3.72,0,5.58s0,3.72,0,5.59c0,3.72,0,7.45,0,11.17v6.36c0,2.13,0,4.25,0,6.37a.6.6,0,0,0,.58.59l1.29,0H6.13l5.55,0L23,78.68l12.72,0a.78.78,0,0,0,.78-.78c0-1.58,0-3.17,0-4.76a.75.75,0,0,0-.74-.75.76.76,0,0,0-.75.75l0,4-10.48,0-11.28.07-6.23,0H2.22l-1,0c0-1.62,0-3.25,0-4.88,0-1.85,0-3.71,0-5.56q0-5.6,0-11.19V49.33c0-2,0-3.94,0-5.9q10.83,0,21.67,0H35.26q0,10.88.06,21.75c0,.6,0,1.2,0,1.8a.35.35,0,1,0,.7,0c0-3.72,0-7.44,0-11.16s0-7.4,0-11.1V43.09a.47.47,0,0,0,0-.1s0,0,0-.05v-.08a.49.49,0,0,0-.39-.47.88.88,0,0,0-.27-.06H30.35l-5.62,0-11.11,0H.6Z"/><path class="c" d="M35,83l-.49,0H33.24l-2.55,0-5,0L15.48,83Q8,83,.6,82.93a.62.62,0,0,0-.6.61q0,10.17,0,20.34c0,4.91,0,9.82,0,14.73a.55.55,0,0,0,.55.55q10.23.09,20.44.14l7.35,0,3.68,0h3.16a3.42,3.42,0,0,1,.45,0,.77.77,0,0,0,.56-.23.82.82,0,0,0,.24-.57c0-3.36,0-6.73.05-10.09s0-6.8,0-10.21V90.93c0-2.46,0-4.93,0-7.39a.83.83,0,0,0-.83-.83A.86.86,0,0,0,35,83ZM10.77,84.13l10.24,0,7.35,0H32l1.82,0h1l0,4.54c0,1.71,0,3.41,0,5.12q0,5.11,0,10.24c0,2.44,0,4.89,0,7.33,0,2.2,0,4.39,0,6.58H30.64l-5.1,0-10.22,0-14.16.1c0-6.63,0-13.27,0-19.91q0-7,0-14Z"/><path class="c" d="M75.24,0H43.37a.68.68,0,0,0-.67.67q0,12.87,0,25.74v9.33a.66.66,0,0,0,.66.66q6.42,0,12.82,0l12.92.07,9.34.05a.77.77,0,0,0,.77-.77l.06-4.2c0-1.41,0-2.82,0-4.23,0-2.82,0-5.64,0-8.46a.79.79,0,0,0-.23-.55c0-2.77,0-5.53,0-8.3q0-4.66,0-9.33a.63.63,0,0,0-.62-.63C77.4,0,76.36,0,75.31,0Zm2.59,1.33c0,4.06,0,8.11,0,12.17,0,1.61,0,3.21,0,4.82a.79.79,0,0,0-.23.55c0,2.82,0,5.64,0,8.46,0,1.41,0,2.82,0,4.23,0,1.14,0,2.29,0,3.43-8.35.06-16.71.12-25.06.13H48c-1.32,0-2.64,0-4,0V1.36h32c.59,0,1.18,0,1.78,0Z"/><path class="c" d="M73.51,41.91H67.87l-11.31,0L44,42a.6.6,0,0,0-.6.6q0,11.36,0,22.7,0,6.19,0,12.38a.59.59,0,0,0,.58.58q5.72,0,11.42,0H74.94a.6.6,0,0,0,.24,0h3.87a.59.59,0,0,0,.58-.58V66.34l0-11.43c0-2.06,0-4.12,0-6.17s0-4.12,0-6.18a.65.65,0,0,0-.64-.64H73.51Zm-28.94,13q0-5.88,0-11.75,11,0,22,0H78.41c0,1.69,0,3.38,0,5.07,0,1.9,0,3.81,0,5.71l0,11.44c0,3.87,0,7.75,0,11.62H75.18a.6.6,0,0,0-.24,0H56.2l-11.65,0q0-11.07,0-22.14Z"/><path class="c" d="M78.47,84.84h-2l-2.67,0H44a.55.55,0,0,0-.54.54q0,10.82,0,21.63,0,6.72,0,13.45a.51.51,0,0,0,.51.51q10.86,0,21.71.06l13.37.09a.67.67,0,0,0,.66-.66q0-10.9.08-21.79,0-6.65,0-13.29a.77.77,0,0,0-.76-.76.75.75,0,0,0-.58.27Zm-12.9,1h6.82l3.35,0h2.54q0,10.65,0,21.29,0,6.31,0,12.63-10.53.07-21.06.11-6.42,0-12.83,0,0-10.58,0-21.16,0-6.42,0-12.85Z"/><path class="c" d="M84.35.92a.68.68,0,0,0-.67.67c.07,8.17,0,16.34,0,24.52,0,3.52,0,7,0,10.55a.6.6,0,0,0,.6.6H96.6c4.1,0,8.19,0,12.28,0l5.26,0c1.76,0,3.52,0,5.28,0a.7.7,0,0,0,.7-.69c0-7.12,0-14.24,0-21.36a.63.63,0,0,0-.14-.4V7.23c0-1.88,0-3.76,0-5.64a.58.58,0,0,0-.57-.57l-3-.05h-3l-6.07,0L95.16.92H84.35Zm24.32,1.31,5.33,0,2.67,0c.73,0,1.47,0,2.2,0,0,.79,0,1.58,0,2.37,0,1,0,2,0,3.07v7.29a.68.68,0,0,0-.14.41c0,6.89,0,13.78,0,20.68l-5.33,0-6.11,0L95,36.06H85q0-12,0-23.95V6.84c0-1.53,0-3.06,0-4.59h5.75c6,0,11.94,0,17.91,0Z"/><path class="c" d="M93.13,42.48H85a.69.69,0,0,0-.68.68q0,13.59,0,27.18,0,3.94,0,7.89a.65.65,0,0,0,.65.65q13.64,0,27.26.07L120,79a.81.81,0,0,0,.8-.8q0-6.45,0-12.91c0-2.14,0-4.28,0-6.42s0-4.36,0-6.54a.86.86,0,0,0-.27-.6V46.57c0-1.14,0-2.27,0-3.41a.59.59,0,0,0-.16-.4.65.65,0,0,0-.4-.16l-.36,0a2.25,2.25,0,0,0-.26,0h-2.67l-3.33,0c-2.25,0-4.5,0-6.75,0H93.13Zm18.94,1.33,4,0,2,0h1.41c0,2.67,0,5.33,0,8a.79.79,0,0,0-.27.6c0,2.13,0,4.27,0,6.4s0,4.37,0,6.56q0,6.06,0,12.13c-2,0-4,0-5.93.06l-6.79,0q-6.81,0-13.62,0H85.6q.06-13.29,0-26.59V43.84H97.44q7.31,0,14.63,0Z"/><path class="c" d="M92.51,84.87H86.44a.77.77,0,0,0-.76.76c.06,9.72,0,19.44.06,29.17,0,2,0,3.94,0,5.9a.7.7,0,0,0,.69.7q14.6,0,29.19.08l5.89.06a.85.85,0,0,0,.84-.84c0-4,0-8.11,0-12.17a.91.91,0,0,0-.3-.66v-1.68q0-7.32,0-14.65c0-2,0-3.94,0-5.91a.63.63,0,0,0-.62-.63c-.56,0-1.12-.09-1.67-.09h-5.53l-7.29,0H92.51Zm23,1.5H120c.23,0,.47,0,.7,0h.2q0,10.78,0,21.57a.91.91,0,0,0-.3.66c0,3.78,0,7.56,0,11.34-2.17,0-4.33,0-6.5.06l-7.31,0-14.67,0h-5q0-14.2,0-28.41c0-1.74,0-3.47,0-5.21H99.38q8.06,0,16.11,0Z"/><path class="c" d="M17.77,93.78a2,2,0,0,0-.59.54,9.21,9.21,0,0,0-.73.92c-.24.36-.47.72-.7,1.08s-.45.75-.68,1.12a.82.82,0,0,0-.14.61.85.85,0,0,0,.32.51.8.8,0,0,0,1.11-.19c.19-.3.38-.6.56-.91s.28-.48.44-.71l.32-.48v.08l0,.85c0,.36,0,.71,0,1.07,0,.91,0,1.82,0,2.74s.06,1.74.1,2.62c0,.37.05.74.08,1.11s.06.81.13,1.2a3.46,3.46,0,0,0,.18.65.71.71,0,0,0,1.35-.43c-.06-.33-.08-.66-.12-1s-.06-.61-.08-.92c0-.62-.08-1.23-.11-1.85,0-1-.05-2,0-3,0-.55,0-1.1,0-1.66,0-.36,0-.73,0-1.1,0-.55.06-1.1,0-1.65,0,.07,0,.14,0,.21a3.54,3.54,0,0,0-.05-.73,1,1,0,0,0-.6-.72,1.37,1.37,0,0,0-.35-.08h0a1,1,0,0,0-.44.11Zm1.39,8.68v0Z"/><path class="c" d="M21.47,105.79c-.18.06-.36.13-.55.18a19.3,19.3,0,0,1-2,.54,13.09,13.09,0,0,1-2.25.3c-1.26,0-2.53,0-3.8,0a.86.86,0,0,0-.59.19.8.8,0,0,0,.44,1.42c1,0,1.93,0,2.9,0a19,19,0,0,0,2.83-.18,23.64,23.64,0,0,0,3.69-1,.75.75,0,0,0,.42-.45.82.82,0,0,0-.47-1.06.86.86,0,0,0-.27,0,1.27,1.27,0,0,0-.37.07Zm-4.6,1h0Z"/><path class="c" d="M60.91,96.08a3.26,3.26,0,0,0-.83.12,3,3,0,0,0-1.4.76A2.29,2.29,0,0,0,58,98.38a1.63,1.63,0,0,0,.53,1.29.56.56,0,0,0,.86-.72,2.62,2.62,0,0,1-.22-.25s0-.07-.05-.1v0a1.46,1.46,0,0,1,0-.22l.09-.24a2.92,2.92,0,0,1,.21-.28,1.76,1.76,0,0,1,.3-.24,2.72,2.72,0,0,1,.46-.21,3.79,3.79,0,0,1,.66-.11,3.12,3.12,0,0,1,.52,0,1.48,1.48,0,0,1,.27.1l.2.14.06.08a1.73,1.73,0,0,1,.14.31,2,2,0,0,1,.09.49,5,5,0,0,1-.1,1,7.32,7.32,0,0,1-.56,1.43,11.46,11.46,0,0,1-1.55,2.11,19.37,19.37,0,0,1-2.54,2.25c-.22.16-.44.34-.68.49l-.67.44a4.91,4.91,0,0,1-.44.25l-.12,0a.76.76,0,0,0-.49.31.86.86,0,0,0-.14.58.7.7,0,0,0,.18.39.73.73,0,0,0,.32.23.72.72,0,0,0,.59,0l0,0,.32-.07.36,0a11.76,11.76,0,0,1,2.64.31c1.7.41,3.36,1,5,1.53l1.21.41.78.25.41.13a5.06,5.06,0,0,0,.67.17,1.64,1.64,0,0,0,.54,0l.36-.11.2-.11a1,1,0,0,0-.86-1.86l0,0-.32-.07c-.62-.15-1.23-.33-1.84-.49s-1.15-.34-1.73-.51c-1.18-.34-2.35-.66-3.55-.92a17.9,17.9,0,0,0-1.78-.31l.23-.18a19.12,19.12,0,0,0,2.09-1.93,11.92,11.92,0,0,0,1.94-2.63,7.43,7.43,0,0,0,.59-1.43,6.39,6.39,0,0,0,.18-.87,4.6,4.6,0,0,0,0-.91,2.79,2.79,0,0,0-.5-1.38,1.68,1.68,0,0,0-.59-.5,2.61,2.61,0,0,0-.77-.27,2.19,2.19,0,0,0-.36,0Zm-1.8,2.39v0Zm0,.17,0,.06s0,0,0-.06Zm-2.29,9.09h0Zm10.82.76,0,0h0l0,0Zm-.24,0h0Z"/><path class="c" d="M101,97.74a5.75,5.75,0,0,0-1.09.17,1,1,0,0,0-.7.48.37.37,0,0,0,.08.32c.08.11.26.11.39.11l.43,0a.19.19,0,0,0,.21-.17.2.2,0,0,0-.18-.21h-.23a4.34,4.34,0,0,1,.88-.12c.61,0,1.23,0,1.84,0l.94.07c.63.06,1.26.11,1.88.2a3.12,3.12,0,0,1-.32.4,6.69,6.69,0,0,1-1.21,1,12,12,0,0,1-1.56.78l-.58.25-.32.14-.26.11a2.65,2.65,0,0,0-.42.26.58.58,0,0,0-.21.39s0,.1,0,.16a.68.68,0,0,0,.12.26l.09.15a.86.86,0,0,0,.29.21,1.35,1.35,0,0,0,.49.11h.45l.52,0a12.78,12.78,0,0,1,2.13.26,4.88,4.88,0,0,1,1.11.39,3.63,3.63,0,0,1,.46.34,3.17,3.17,0,0,1,.29.35,1.43,1.43,0,0,1,.13.28,3.09,3.09,0,0,1,.09.53,4,4,0,0,1,0,.6,4.12,4.12,0,0,1-.27.69,3.72,3.72,0,0,1-.43.61,4.28,4.28,0,0,1-.67.54,3.85,3.85,0,0,1-.71.34,4.83,4.83,0,0,1-1,.15,8.45,8.45,0,0,1-1.74-.13,4,4,0,0,1-.71-.26,6.49,6.49,0,0,1-1.09-.8c-.28-.28-.55-.58-.82-.87l-.48-.5c-.3-.32-.59-.64-.87-1a.72.72,0,0,0-1.11.92c.39.46.8.89,1.22,1.33s.64.7,1,1a6.42,6.42,0,0,0,1.8,1.26,4.54,4.54,0,0,0,1,.28,7.43,7.43,0,0,0,1,.09,7.79,7.79,0,0,0,1.08,0,4.65,4.65,0,0,0,1.11-.22,4.19,4.19,0,0,0,.83-.39,5.62,5.62,0,0,0,.88-.66,4.45,4.45,0,0,0,1.1-1.76,3.78,3.78,0,0,0,.17-1.11,4.4,4.4,0,0,0,0-.62,4,4,0,0,0-.16-.57,2.57,2.57,0,0,0-.27-.52,2.66,2.66,0,0,0-.34-.4,4.49,4.49,0,0,0-.46-.41,3.78,3.78,0,0,0-.59-.34,6.1,6.1,0,0,0-1-.34,9.24,9.24,0,0,0-1.26-.22c-.29,0-.58-.06-.87-.08l0,0c.37-.18.73-.36,1.08-.57a7.1,7.1,0,0,0,1.66-1.32,3.16,3.16,0,0,0,.57-.8,1,1,0,0,0,.1-.45.76.76,0,0,0-.05-.3.53.53,0,0,0-.08-.15l-.12-.12-.21-.1-.23,0a1.1,1.1,0,0,0-.25,0,.4.4,0,0,1-.11,0H105l-1.46,0-1.5,0c-.35,0-.7,0-1,0Zm-.16.59h0Zm-1.23.26h0Zm5.84.07v0Z"/><path class="c" d="M22.09,54.13Q21.57,59.2,21,64.29a.61.61,0,0,0-.31.5c0,.36,0,.71,0,1.07s.06.74.09,1.11a.74.74,0,0,0,.32.51.78.78,0,0,0,.59.13.79.79,0,0,0,.64-.91c0-.41.06-.82.1-1.22s.07-.85.11-1.27c.08-.72.14-1.45.22-2.18l.54-5.19.27-2.57a.75.75,0,0,0-.67-.81h-.06a.75.75,0,0,0-.74.67Z"/><path class="c" d="M17.83,53.13a30.62,30.62,0,0,1-1.28,2.79c-.35.65-.71,1.29-1.08,1.93-.26.43-.51.86-.76,1.29s-.52.84-.77,1.27c-.15.26-.29.52-.42.79a8.53,8.53,0,0,0-.32.84A.9.9,0,0,0,14,63.27a4.35,4.35,0,0,0,.51,0l.34-.11L15,63c.16-.09.33-.17.49-.24a13.82,13.82,0,0,1,1.6-.66,9.3,9.3,0,0,1,1.29-.3,13.62,13.62,0,0,1,1.42-.13,11.74,11.74,0,0,1,2.71.18,3.91,3.91,0,0,1,.65.24l.06,0A.86.86,0,0,0,24.45,62a.87.87,0,0,0-.19-1.2,3.85,3.85,0,0,0-1.38-.55A9.38,9.38,0,0,0,21.39,60a12.51,12.51,0,0,0-1.5,0c-.53,0-1.07.05-1.6.11a10.2,10.2,0,0,0-2.36.59l.32-.5c.2-.34.4-.67.61-1,.33-.55.66-1.09,1-1.64a21.31,21.31,0,0,0,1.81-3.72,1,1,0,0,0-.57-1.25,1,1,0,0,0-.33-.06,1,1,0,0,0-.92.62Zm-.79,9-.1,0,.1,0Z"/><path class="c" d="M66.55,53.55a12.4,12.4,0,0,0-1.36.21c-.49.09-1,.19-1.45.26s-1,.15-1.43.2l-1.48.12h0a4.82,4.82,0,0,1-.76,0L60,54.27a.69.69,0,0,0-.81,0A.66.66,0,0,0,59,55a1.85,1.85,0,0,1,0,.23,14.6,14.6,0,0,1-.92,2.29c-.18.38-.37.77-.57,1.15a2,2,0,0,1-.11.2,1.58,1.58,0,0,0-.09.36.52.52,0,0,0,0,.25,1,1,0,0,0,.19.39,1,1,0,0,0,.18.17,1.69,1.69,0,0,0,.29.17,1.65,1.65,0,0,0,.54.09h.18c.1,0,.2,0,.3,0l.61.07a9.85,9.85,0,0,1,1.09.15,8.05,8.05,0,0,1,1.67.58,5.63,5.63,0,0,1,.84.61,3.41,3.41,0,0,1,.39.45,4.8,4.8,0,0,1,.3.65,3.38,3.38,0,0,1,.09.54,3,3,0,0,1,0,.43,3.88,3.88,0,0,1-.28.71,3.48,3.48,0,0,1-.43.6,4.82,4.82,0,0,1-.6.5,3.12,3.12,0,0,1-.49.23,4.22,4.22,0,0,1-.62.1,5.24,5.24,0,0,1-1-.1,4.22,4.22,0,0,1-.67-.26,4,4,0,0,1-.54-.37,4.87,4.87,0,0,1-.4-.5,6.77,6.77,0,0,1-.36-.88c-.08-.19-.15-.38-.22-.58s-.06-.22-.08-.33a.89.89,0,0,0-1-.71.88.88,0,0,0-.71,1,10.77,10.77,0,0,0,.58,1.65,3.87,3.87,0,0,0,.29.62,4.53,4.53,0,0,0,.45.63,4.43,4.43,0,0,0,2.67,1.37,5.09,5.09,0,0,0,1.51,0A4,4,0,0,0,64.48,66a4.22,4.22,0,0,0,.67-1.14,3.57,3.57,0,0,0,.28-1.4,3.82,3.82,0,0,0-1.12-2.6A5.69,5.69,0,0,0,63.2,60a6.38,6.38,0,0,0-1.42-.6,10,10,0,0,0-1.44-.32c-.24,0-.49-.06-.73-.08A5.67,5.67,0,0,0,58.9,59c.18-.36.35-.72.52-1.08s.36-.78.51-1.19a6.92,6.92,0,0,0,.35-1.09l.49-.05.83-.1c.44-.06.89-.13,1.33-.22l1.56-.31,1-.2a12,12,0,0,1,1.69-.3l.25,0h0l.22.18a.44.44,0,0,0,.61-.1.44.44,0,0,0-.1-.61l0,0,0,0a1.32,1.32,0,0,0-.62-.35l-.42,0a5.07,5.07,0,0,0-.55,0ZM61,54.33h0Z"/><path class="c" d="M106.4,51.19a12.36,12.36,0,0,0-1.55,1.14,11.84,11.84,0,0,0-1.41,1.51,12.9,12.9,0,0,0-1.9,3.45,23.2,23.2,0,0,0-1.12,3.93l0,.1a4.52,4.52,0,0,0-.62.21,5.1,5.1,0,0,0-1.24.76,5.31,5.31,0,0,0-.81.68l-.18.19a1,1,0,0,0-.19.5,1,1,0,0,0,.23.75,1,1,0,0,0,.69.37,1,1,0,0,0,.53-.09,1,1,0,0,0,.4-.32,6.19,6.19,0,0,1,.55-.47l.28-.22c-.05.53-.08,1.05-.08,1.58a6.41,6.41,0,0,0,.21,1.9,2.82,2.82,0,0,0,1.06,1.55,2.21,2.21,0,0,0,1.67.24,3.49,3.49,0,0,0,1.68-.92,3.81,3.81,0,0,0,1-1.47,3.28,3.28,0,0,0,.14-1.86,4.52,4.52,0,0,0-.82-1.64,4.42,4.42,0,0,0-1.52-1.19c-.2-.11-.41-.2-.62-.29a3.87,3.87,0,0,0-.88-.26c0-.26.11-.52.17-.78a19.22,19.22,0,0,1,1.6-4.43,11.69,11.69,0,0,1,1.61-2.21,11.52,11.52,0,0,1,1.61-1.35l.17-.1a.76.76,0,0,0,.35-.38.68.68,0,0,0,0-.54.64.64,0,0,0-.38-.36.76.76,0,0,0-.27-.05.5.5,0,0,0-.27.07Zm-4.87,12,.21,0a6,6,0,0,1,1,.39,3.45,3.45,0,0,1,.59.41,2.52,2.52,0,0,1,.68,1.07,1.59,1.59,0,0,1,.06.3,2.3,2.3,0,0,1,0,.45,3.1,3.1,0,0,1-.23.6,2,2,0,0,1-.29.4,3.83,3.83,0,0,1-.44.36,1.76,1.76,0,0,1-.39.19l-.35.07-.21,0h0l-.16-.12a1.63,1.63,0,0,1-.17-.2,3.1,3.1,0,0,1-.21-.45,5.12,5.12,0,0,1-.15-1,16.63,16.63,0,0,1,.13-2.44Zm-.13,2.33v0Zm.56,1.85.06,0-.06,0Z"/><path class="c" d="M11.34,9.93a1.05,1.05,0,0,0-.68.37,1.19,1.19,0,0,0,.16,1.32,3.89,3.89,0,0,0,1.1.92,9.5,9.5,0,0,0,3,1.19A14.15,14.15,0,0,0,18.4,14a23.24,23.24,0,0,0,3.43-.39l.66-.13c-.3.44-.58.91-.85,1.38-.58,1-1.11,2-1.65,3.07-.35.66-.71,1.31-1,2l-1.28,2.58c-.34.67-.64,1.35-1,2s-.62,1.45-1,2.15a1.93,1.93,0,0,0-.22.58,1.33,1.33,0,0,0,.12.76.9.9,0,0,0,1.19.44,4.36,4.36,0,0,0,.59-.35,2.74,2.74,0,0,0,.45-.39c.25-.26.5-.54.74-.82L19.4,26c.43-.51.86-1,1.27-1.56a.81.81,0,0,0-.19-1.13.77.77,0,0,0-.61-.14.87.87,0,0,0-.51.32l-.7.8.06-.14c.13-.31.26-.62.41-.92l1.22-2.55c.3-.62.62-1.22.93-1.83L22.2,17c.39-.72.78-1.45,1.21-2.15.23-.37.47-.72.72-1.06a11.92,11.92,0,0,1,.75-1l0,0,.6-.21a2.49,2.49,0,0,0,.51-.27.34.34,0,0,0,.12-.12l.13-.13c0-.09.1-.17.14-.26a.73.73,0,0,0-.26-.86,1.82,1.82,0,0,0-.31-.16,1.05,1.05,0,0,0-.5,0,1.71,1.71,0,0,0-.38.13,3.13,3.13,0,0,0-.36.22,4.67,4.67,0,0,0-.68.57l-.71.23a21.83,21.83,0,0,1-5.08.83A14.34,14.34,0,0,1,16,12.63a.75.75,0,0,0,0-.29,4.78,4.78,0,0,0-.28-.61,2.3,2.3,0,0,0-.5-.58,4.71,4.71,0,0,0-1.43-.85,5.4,5.4,0,0,0-1.58-.4h-.29a2.63,2.63,0,0,0-.49,0ZM11.86,11a3.74,3.74,0,0,1,.75.08,6.29,6.29,0,0,1,1.25.47,3.51,3.51,0,0,1,.59.42,2.85,2.85,0,0,1,.23.26,1.3,1.3,0,0,1,.08.17,9.2,9.2,0,0,1-1.89-.72,6.26,6.26,0,0,1-1-.64l0,0Z"/><path class="c" d="M18.1,19.63a7.87,7.87,0,0,0-1.29.19.66.66,0,0,0-.53.75.65.65,0,0,0,.75.52,8,8,0,0,1,1.19-.18,13.73,13.73,0,0,1,2.12.22l1.28.18c1.14.18,2.28.37,3.41.57a.65.65,0,0,0,.7-.57.63.63,0,0,0-.15-.46.63.63,0,0,0-.43-.23l-2.09-.37L21.64,20l-1.72-.25-.72-.1a7.16,7.16,0,0,0-.8-.05Z"/><path class="c" d="M62.46,10.81a5.51,5.51,0,0,0-1.32.31,4.55,4.55,0,0,0-1.16.65,3.47,3.47,0,0,0-.88,1,3,3,0,0,0-.43,1.29,4.18,4.18,0,0,0,0,.71c0,.22.08.43.13.64a5,5,0,0,0,.56,1.25c.23.4.48.8.75,1.19s.56.76.83,1.14.5.73.74,1.11A8.9,8.9,0,0,1,62.61,22a4.49,4.49,0,0,1,.17.81c0,.13,0,.27,0,.4s-.06.18-.1.27h0l0,0a.42.42,0,0,1-.14.06l-.07,0-.12,0a1.51,1.51,0,0,1-.35-.14,2.77,2.77,0,0,1-.45-.31,6.49,6.49,0,0,1-.72-.92,7.54,7.54,0,0,1-.64-1.42,15.52,15.52,0,0,1-.4-2.16c-.05-.39-.11-.79-.14-1.19a.71.71,0,0,0-.84-.59.73.73,0,0,0-.47.29.77.77,0,0,0-.13.55c0,.39.06.76.11,1.14a15.31,15.31,0,0,0,.36,2.15,8.88,8.88,0,0,0,.46,1.25,7.72,7.72,0,0,0,.72,1.21,3.75,3.75,0,0,0,2,1.54,1.81,1.81,0,0,0,.69.07,1.64,1.64,0,0,0,.61-.17,1.69,1.69,0,0,0,.57-.42,1.94,1.94,0,0,0,.31-.54,2.68,2.68,0,0,0,.15-1.24,2.63,2.63,0,0,0-.13-.69,6.23,6.23,0,0,0-.24-.73,11.67,11.67,0,0,0-1.35-2.38q-.36-.54-.75-1c-.28-.37-.55-.73-.8-1.11l-.29-.46A5.86,5.86,0,0,1,60,15.12a4.29,4.29,0,0,1-.14-.81,2.28,2.28,0,0,1,0-.45,3.25,3.25,0,0,1,.15-.4,3.85,3.85,0,0,1,.38-.52,3.45,3.45,0,0,1,.56-.45,4.56,4.56,0,0,1,.84-.39A5.8,5.8,0,0,1,63,11.92a3.08,3.08,0,0,1,.61,0,3.39,3.39,0,0,1,.48.17l.19.13,0,.07.06.13a.59.59,0,0,1,0,.14v0a6.58,6.58,0,0,1-.48,1.16,6,6,0,0,1-.66,1,5,5,0,0,1-.56.47,5.88,5.88,0,0,1-.78.33.52.52,0,1,0,.43.94l.56-.22a2.45,2.45,0,0,0,.58-.34,4,4,0,0,0,.92-1,7.44,7.44,0,0,0,.68-1.19c.1-.21.18-.42.26-.63a1.41,1.41,0,0,0,.13-.7,1.55,1.55,0,0,0-.51-1.07,2.63,2.63,0,0,0-1.06-.52,3,3,0,0,0-.85-.1l-.56,0Zm1.89,1.88v0ZM61.65,20l0,0,0,0Zm-1.53.81,0,.07,0-.07Z"/><path class="d" d="M102.83,10a5.5,5.5,0,0,0-1,.37,7,7,0,0,0-.95.57,10.21,10.21,0,0,0-1.58,1.43,22.73,22.73,0,0,0-1.51,1.89,3.87,3.87,0,0,0-.37.53,1.78,1.78,0,0,0-.18.72,1.07,1.07,0,0,0,.18.65,1.43,1.43,0,0,0,.6.46,2.29,2.29,0,0,0,.63.19,2.53,2.53,0,0,0,.91,0,3.9,3.9,0,0,0,.76-.22c.3-.11.59-.23.88-.36a12,12,0,0,0,1.5-.91c.49-.34,1-.72,1.4-1.1l.2-.17s0,.1,0,.15c.07.54.16,1.08.23,1.62l0-.19c.13.95.3,1.89.43,2.83.09.72.13,1.44.16,2.16a13.58,13.58,0,0,1-.08,2.3,10.1,10.1,0,0,1-.53,2.1,6.73,6.73,0,0,1-.65,1.13,4.79,4.79,0,0,1-.68.67l-.26.17-.21.05a2.9,2.9,0,0,1-.51,0,5.16,5.16,0,0,1-.67-.2,6.72,6.72,0,0,1-.75-.4c-.23-.15-.45-.31-.68-.48s-.71-.59-1-.9a.81.81,0,0,0-1.15,0,.81.81,0,0,0,0,1.15c.42.39.86.77,1.31,1.12a9.41,9.41,0,0,0,1.14.76,6.58,6.58,0,0,0,.72.32,3.75,3.75,0,0,0,.65.2,3.71,3.71,0,0,0,1.52,0,2.26,2.26,0,0,0,.65-.3,5.81,5.81,0,0,0,.56-.45A6.33,6.33,0,0,0,106,25.42a10.35,10.35,0,0,0,.59-2.81,17.56,17.56,0,0,0,0-2.9c-.08-1-.23-2-.4-3-.08-.48-.15-1-.22-1.45s-.16-1-.22-1.44l0,.19a8.08,8.08,0,0,1-.09-1.2,1.62,1.62,0,0,1,0-.22c0-.09.1-.17.14-.26a2,2,0,0,0,.17-.43,2.22,2.22,0,0,0,0-.45.63.63,0,0,0-.32-.56,1.33,1.33,0,0,0-.09-.21,1.67,1.67,0,0,0-.76-.63,2.47,2.47,0,0,0-1-.21,4.44,4.44,0,0,0-1,.12Zm1.31.87a1.77,1.77,0,0,1,.31.08l.19.1a1.81,1.81,0,0,0-.18.23,2.68,2.68,0,0,0-.12.3,1.88,1.88,0,0,0-.07.58,1.09,1.09,0,0,0,0,.18,10.45,10.45,0,0,1-.81.82c-.34.31-.7.61-1.06.9s-.68.48-1,.71a7.53,7.53,0,0,1-1.09.57,4.75,4.75,0,0,1-1,.33,2,2,0,0,1-.34,0l-.38-.1-.1-.06v-.1s0-.09,0-.14a5.36,5.36,0,0,1,.34-.49l.17-.24.44-.6a12.18,12.18,0,0,1,.92-1.1,10.33,10.33,0,0,1,1.08-1,6.39,6.39,0,0,1,1.29-.75,3.35,3.35,0,0,1,.75-.21,3.18,3.18,0,0,1,.69,0Zm.74.46Zm-7,2.88,0,0,0,0Zm2.5,1.09-.11,0,.11,0Zm-2,.15v.06h0s0,0,0-.06ZM105,18.25v0Z"/></svg>