<svg xmlns="http://www.w3.org/2000/svg" viewBox="0 0 122.41 121.54"><defs><style>.a{fill:#f195b1;}.b{fill:#bcb3d9;}.c{fill:#2d2d2d;}.d{fill:#161617;}</style></defs><title>lt-rb-v</title><path class="a" d="M33.76,86.66v.07a6.73,6.73,0,0,0,.1.89c0,.2,0,.41.07.62a1.38,1.38,0,0,0-.84.18,0,0,0,0,1,0,0,1.44,1.44,0,0,0-1.38-1,1.39,1.39,0,0,0-.53.1l0-.54c0-.1,0-.2,0-.3-3.56,0-7.11.13-10.67.2L15.69,87l0,.77a2,2,0,0,0-.89.51l-.31.39a2,2,0,0,0-.23.64,2.85,2.85,0,0,0-.65,0,2,2,0,0,0-.68.11,1.92,1.92,0,0,0-.26-.82,2,2,0,0,0-1.19-.91,2.08,2.08,0,0,0-1,0,2,2,0,0,0-1.19.91c-.17.4-.36.78-.49,1.19,0-.3-.05-.59-.08-.89-.05-.56-.13-1.13-.21-1.69l-4.17.07c0,.3-.07.6-.11.89a16.36,16.36,0,0,0,0,2.62,2.32,2.32,0,0,0-.81.78l-.08.11c0-.3,0-.59,0-.89a2.16,2.16,0,0,0-1.24-1.94c0,.4,0,.81.05,1.22,0,.58,0,1.16,0,1.75.19,1.66.37,3.33.55,5,.09.78.1,1.57.15,2.35.09,1.51.17,3,.26,4.52.13,2.16.08,4.34.1,6.51,0,1.74,0,3.49-.06,5.23H6.81c4.06,0,8.1.12,12.15.26v-.06l0-.24c0,.1,0,.2,0,.3l1.77.07c2.13.09,4.26.22,6.39.34l1.44.08c0-.36,0-.73,0-1.1l0,0c0,.21,0,.41,0,.62s0,.34,0,.51c2.38.15,4.77.35,7.13.66h0a4,4,0,0,0,0-.49c0-.14,0-.27,0-.41a.79.79,0,0,0,.31.23Q36,113,35.9,109.91l-.21-7c0-1.3-.07-2.6-.11-3.9s-.06-2.84-.19-4.26c0-.13,0-.27-.08-.4l-.06,0a3.79,3.79,0,0,1,0-5.36,4,4,0,0,1,.58-.48c-.1-.49-.19-1-.28-1.47a3.6,3.6,0,0,1-.91-.3Z"/><path class="a" d="M5.22,43.43c-.3,1.12-.61,2.23-.82,3.37C4.14,48.21,4,49.62,3.78,51c-.08.66-.16,1.32-.23,2a1.54,1.54,0,0,0-.19.17l-.15.19c.15,1.53.28,3.06.43,4.59.19,2,.32,3.89.46,5.84.15,2.11.28,4.2.35,6.3L4.57,74c0,.45,0,.91,0,1.36h.06l1.89,0c0-.3,0-.59,0-.89a2.2,2.2,0,0,1,.25.17,2.15,2.15,0,0,0,1.68.22,2.05,2.05,0,0,0,.41-.16l.12.62,3.07-.06H13.2c1.7,0,3.41.06,5.12.09,4.12.07,8.24.23,12.36.44l2.61.13.39-3.71c.48-4.48,1-9,1.36-13.44l.62-7.29c.15-1.77.31-3.55.58-5.32l-.11-1c0-.06,0-.13,0-.19q-3.16-.2-6.33-.43c0,.37-.07.74-.1,1.11a1.86,1.86,0,0,0-1-.48V45a2.06,2.06,0,0,0-.11-.61c-1.73-.14-3.45-.29-5.18-.4-.87-.05-1.74-.12-2.6-.18-.1.63-.2,1.25-.29,1.88a1.79,1.79,0,0,0-.3-.38,2.06,2.06,0,0,0-3.39.75,2.12,2.12,0,0,0-2.62-.37,2.33,2.33,0,0,0-.69.64l0-.48c.06-.79.13-1.58.19-2.37-2.8-.1-5.6-.2-8.39-.24a.81.81,0,0,0-.07.22Z"/><path class="a" d="M33,4c-2.19.08-4.39.2-6.58.31l-10.68.48c-.09,1.43-.13,2.85-.18,4.28-.08,1.87-.11,3.74-.17,5.61a90.71,90.71,0,0,0,.21,10c0,.65.12,1.29.19,1.94V27c0,.11,0,.21,0,.32l-.12-.87a105.68,105.68,0,0,1-.77-12.19c0-2.87-.09-5.74-.1-8.62a2,2,0,0,0-.16-.76l-.83,0-2.76.14a3.51,3.51,0,0,0-.1.58c0,.31,0,.61,0,.91a2.25,2.25,0,0,0-1.8-.94,2.12,2.12,0,0,0-.9.2.78.78,0,0,0,0-.16c0-.15,0-.29-.05-.44l-6.54.37c.26,2.25.54,4.5.82,6.75.46,3,.93,6.09,1.33,9.14.25,1.91.49,3.81.74,5.72a49.2,49.2,0,0,1,.34,5q0,.7,0,1.41l2.33-.11c1.18,0,2.36-.07,3.54-.07h1.11c4.38.07,8.76.2,13.14.48,2.17.14,4.35.27,6.52.43,1.48.11,3,.21,4.44.35l.29,0v-.56l0-5.14V27.5a3.7,3.7,0,0,1-.76-2.25A3.76,3.76,0,0,1,36.19,23c0-.91,0-1.82,0-2.73l-.08-8c0-.87-.06-1.75-.09-2.62s0-1.53-.07-2.3c0-.21,0-.42,0-.63s-.08-.66-.13-1a.78.78,0,0,0-1.54.21c0,.67,0,1.35,0,2,0-.49-.09-1-.17-1.46-.12-.79-.31-1.57-.46-2.36l0-.12L33,4Z"/><path class="a" d="M58.79,87.12H54.17l-.06.14c-.16.42-.28.85-.4,1.28-.27.94-.49,1.89-.7,2.84s-.36,1.67-.52,2.52c-.22,1.23-.45,2.47-.68,3.7L51.87,96c.05-1.6,0-3.2.06-4.8,0-.69,0-1.38,0-2.08l0-1.34v-.65h0c-1.44,0-2.89,0-4.33.11-.21,1-.35,2-.48,3s-.29,2.31-.37,3.47l-.33,4.87c0,.62-.09,1.24-.13,1.85a2,2,0,0,0-.76.27c.1,1.17.19,2.35.28,3.53.07.78.15,1.57.17,2.35l.12,4.33c.07,2.34.05,4.68-.08,7l1.12-.08c1.59-.1,3.18-.17,4.78-.2v0c.21-1,.42-2,.59-3s.29-1.79.43-2.68l.48-2.9c.43-2.61.83-5.21,1.3-7.81.1-.6.21-1.2.32-1.8,0,1.18,0,2.37-.06,3.56-.12,4.89-.22,9.78-.26,14.68h3.52c.09-2.66.22-5.32.35-8,0-.43,0-.86.07-1.29v.26c0,1.47,0,2.94.07,4.4,0,1.29.07,2.58.11,3.87,0,.24,0,.49,0,.74l3.52,0c0-1.76,0-3.51.08-5.27,0-1.29,0-2.59.09-3.88.06-1.49.13-3,.19-4.47l.15-3.59c0-.7.11-1.39.17-2.09.13-1.53.26-3.06.38-4.59l.1-1.12c0,.32,0,.65,0,1s0,.51,0,.77c0,.76,0,1.51,0,2.26,0,.34,0,.68,0,1-.05.71-.09,1.41-.11,2.11,0,1.39-.06,2.78-.1,4.17l-.12,5c0,1,0,1.9,0,2.85,0,1.42,0,2.84,0,4.27,0,.54,0,1.09,0,1.64,1,0,2.08,0,3.11.1h.09l0-1.86c0-.45,0-.9,0-1.36a1.47,1.47,0,0,0,.72-.06c0,.15,0,.3,0,.45a4,4,0,0,0,.46,1.7,1.48,1.48,0,0,0,2.77-.75c0-2,.08-3.9.14-5.85,0-1.07,0-2.14.1-3.21v.22c0,1.49,0,3,.08,4.46s.09,2.75.13,4.13c0,.51.06,1,.11,1.53a1.82,1.82,0,0,0,.24.84l2.14.14q1.5.12,3,.27v-1l.26-.17.21-.17q0-3.21,0-6.42c0-1.84,0-3.69,0-5.53,0-2.09,0-4.19.09-6.28l.15-4.4c0-.86,0-1.72.1-2.58.09-1.35.19-2.71.29-4.06l0-.51a1.13,1.13,0,0,0-.55,0v-.1h-.55c-1.35,0-2.7-.08-4.06-.09-3.37,0-6.74,0-10.11,0Z"/><path class="a" d="M47.24,87.27c-.08.2-.15.41-.21.61a11.74,11.74,0,0,0-.41,2.44c-.06.75-.07,1.5-.08,2.25s0,1.25-.06,1.88l-.09,3.1c-.07,2.21-.17,4.43-.21,6.65,0,2.4-.08,4.79-.12,7.19,0,.45,0,.9,0,1.35,0,1,0,2,0,2.93V116c0,.41,0,.83,0,1.24,0,.24,0,.48,0,.72l1.09-.07,1.89-.1c0-.43.08-.86.1-1.28,0-.79.08-1.58.11-2.37.06-1.11.06-2.22.08-3.33q.06-3.18,0-6.36c0-.78,0-1.57,0-2.35A1.31,1.31,0,0,0,48.6,101c0-1.17.06-2.34.08-3.51l.06-2.78c0-.51,0-1,0-1.54,0-1,0-2,.08-3.06.07.4.12.79.18,1.19.4,3,.64,6.08.92,9.12l0,.34,0,2.21c0,1.09,0,2.19,0,3.29v2.31c0,.88.06,1.76.09,2.63,0,.68,0,1.35.07,2s0,1.12.08,1.68.1,1.3.16,2a.89.89,0,0,0,.66.87h.53a.9.9,0,0,0,.36-.22,1,1,0,0,0,.26-.64c0-.13,0-.26,0-.38v0l.12-1c0-.4,0-.8,0-1.2,0-.86,0-1.73,0-2.6s0-1.68-.06-2.52c-.06-1.4-.13-2.81-.19-4.21-.06-1.16-.11-2.32-.16-3.48,0-.25-.05-.49-.07-.73s0-.54-.07-.8c.14,1,.26,1.94.4,2.91h0v0a1.1,1.1,0,0,0,0,.18s0-.09,0-.14c.22,1.78.45,3.56.67,5.34s.44,3.62.58,5.44c.09,1.19.15,2.39.17,3.59,0,.14,0,.28,0,.41h1.39c0-.61,0-1.21,0-1.81-.1-2.61-.37-5.2-.68-7.79-.28-2.4-.56-4.81-.86-7.22-.37-3-.72-5.91-1.25-8.84a.84.84,0,0,0-.81-.61,1.1,1.1,0,0,0-.36,0c-.1-.87-.21-1.74-.36-2.6-.09-.56-.22-1.11-.35-1.66-1,0-2.07.06-3.11.11Z"/><path class="a" d="M46,47.66c-.08,1,0,2,0,3,0,.6,0,1.2-.06,1.8-.06,1.83-.13,3.67-.2,5.5,0,1-.05,2.06-.07,3.09l0,1.38a1.91,1.91,0,0,0-.28.92c-.13,1.5-.14,3-.12,4.51v.58c-.05.55-.1,1.1-.14,1.65-.12,1.5-.23,3-.38,4.49a3.79,3.79,0,0,1,1,1.34h.06a1.41,1.41,0,0,0,1.08-.14,1.33,1.33,0,0,0,.64-.83l.06-.32a1.72,1.72,0,0,0,1.11-.73c0,.08.07.15.11.22a1.6,1.6,0,0,0,1.84.75,1.62,1.62,0,0,0,.51-.25c0,.18.06.36.08.54a1.62,1.62,0,0,0,1.57,1.19,1.61,1.61,0,0,0,1.14-.47l.26-.33a1.34,1.34,0,0,0,.16-.39c.11.58.22,1.16.36,1.74,0,.22.11.44.16.66l4.07.06c0-.31,0-.62,0-.93,0-.14,0-.28,0-.41a1.68,1.68,0,0,0,.41.17,1.54,1.54,0,0,0,.85,0,1.61,1.61,0,0,0,1.18-1.55c0-1.3,0-2.61,0-3.91l0,.26c0,.62.09,1.23.13,1.85.08,1.18.3,2.37.46,3.55a1.44,1.44,0,0,0,.39.66,1.46,1.46,0,0,0,.69.4l.68,0a1.52,1.52,0,0,0,1.16-1.08l.35.37a1.58,1.58,0,0,0,1.51.4,1.62,1.62,0,0,0,.68-.4,1.68,1.68,0,0,0,.46-1.1l0-.32c0,.32.07.63.1,1l.06.39a1.57,1.57,0,0,0,.38.66,1.43,1.43,0,0,0,.44.3l1.1,0a1.52,1.52,0,0,0,.89-.83,1.72,1.72,0,0,0,.33.26,1.56,1.56,0,0,0,1.16.15,1.41,1.41,0,0,0,.54-.29,1.71,1.71,0,0,0,.21.26,1.44,1.44,0,0,0,1,.43,1.48,1.48,0,0,0,1.28-.75v.08a1.43,1.43,0,0,0,1,1c.41-1.7.77-3.41,1-5.13A71.56,71.56,0,0,0,77.87,61c-.1-2.15-.15-4.31-.37-6.45s-.43-4.46-.7-6.68l-.68-.06,0,.48c0,.31,0,.63.07.94l0,.22a25.24,25.24,0,0,0-.11,3c0,.68,0,1.36,0,2s0,1.42-.07,2.13l-.3-5.85c0-1-.09-2-.14-2.94v-.08c-.85-.06-1.71-.13-2.56-.17l-6-.36s0,.08,0,.12c-.08.79-.16,1.59-.25,2.38-.1,1-.21,1.94-.31,2.91,0,.42-.11.85-.14,1.27l-.09,1.22-.06-4.33c0-1,0-2,0-3v-.57q-3.24-.18-6.48-.31l-3.26-.13c0,.33,0,.65,0,1l0,.52L56,53.66c-.09,1.84-.14,3.68-.19,5.53l-.09-1.25c-.08-1.16-.16-2.32-.25-3.47s-.17-2.19-.26-3.29c0-.37-.05-.74-.08-1.12-.08-1-.26-2-.4-2.92a1.62,1.62,0,0,0-.25-.51l-1.19,0-4.48-.11-2.66-.06c-.07.41-.11.83-.14,1.24Z"/><path class="a" d="M49.59,3.82l0,2.7a1.58,1.58,0,0,0-1-.08,1.51,1.51,0,0,0-1.06,1.1c0-.08,0-.16,0-.24,0-1.06-.12-2.13-.19-3.19A1.73,1.73,0,0,0,47,3.19v.09q-.12,6.12-.46,12.24c-.12,2.28-.26,4.55-.36,6.83-.07,1.41-.13,2.81-.2,4.22a39.3,39.3,0,0,0-.05,5.09,1.16,1.16,0,0,1,0,.18l.12.4h.82l3.14,0q6.48.09,12.95.22c0-.05,0-.11,0-.16s0-.15,0-.23c0,.13.05.26.07.4H64c.92,0,1.83.08,2.75.11s1.93.06,2.89.13l1.37.11c0-1,0-2,0-2.95v-.6c0-.77,0-1.55,0-2.33.1.74.21,1.47.34,2.2.21,1.26.45,2.52.74,3.77l1.56.12,1.43.13c0-.12.05-.25.08-.37.13-.3.25-.6.38-.91a3.88,3.88,0,0,1,1.65-1.51c.11-.76.17-1.54.21-2.31.07-1.2.09-2.41,0-3.62,0-1.77-.09-3.55-.14-5.32,0-.39,0-.78-.07-1.17-.07-1-.14-2-.2-3,0-.63-.09-1.26-.13-1.89s-.12-1.22-.18-1.83l-.32-3.31c-.09-.92-.24-1.83-.36-2.75-.09-.65-.18-1.3-.28-1.94h-.17l-2.75-.12c0,.79,0,1.57,0,2.36,0,.61,0,1.21,0,1.81l.12,4.32c0,2.39.13,4.78.21,7.16l-.06-.87c0-.32-.06-.65-.07-1C73,14,72.9,11,72.74,8.1c-.08-1.29-.12-2.59-.22-3.88,0-.38-.07-.77-.1-1.15l-4.18-.2L68.15,7C68.09,5.62,68,4.24,68,2.86L64.6,2.69h-.1v1a1.59,1.59,0,0,0-1.39-.81A1.63,1.63,0,0,0,62,3.34a1.69,1.69,0,0,0-.47,1.14Q60.9,13,60.33,21.53c-.1-2.15-.13-4.3-.16-6.46,0-1.13,0-2.27,0-3.41s0-2.44,0-3.66,0-2.57-.06-3.86a1.69,1.69,0,0,0-1.67-1.67,1.66,1.66,0,0,0-1.6,1.21,1.64,1.64,0,0,0-.76,0,1.59,1.59,0,0,0-.75.44l-.27.34a1.73,1.73,0,0,0-.23.86c-.12.92-.25,1.84-.34,2.76-.08.74-.15,1.48-.22,2.22-.18,1.83-.34,3.66-.45,5.49,0-.34-.07-.67-.1-1s-.09-.75-.1-1.12c-.06-1.58-.13-3.16-.18-4.74-.05-1.27-.12-2.55-.15-3.82l-.06-2.91L52,2.21l-2.43,0c0,.55,0,1.1,0,1.65Z"/><path class="a" d="M93.44,87.35a1.42,1.42,0,0,0-1,.15,1.35,1.35,0,0,0-.64.82c0,.31-.09.6-.14.9a.8.8,0,0,0-.18.27c-.19.41-.4.82-.57,1.24a9.63,9.63,0,0,0-.32,1.2,25.43,25.43,0,0,0-.35,2.88c-.06.7-.12,1.4-.16,2.09l-.06.9c-.07.1-.13.2-.2.29,0-.2,0-.4,0-.6,0-.9,0-1.81-.07-2.71,0-1.45,0-2.89-.11-4.33a1.31,1.31,0,1,0-2.62,0q-.41,8.46-.54,16.93c0,2.13-.08,4.25-.07,6.38a1.38,1.38,0,0,0,2.71.36c.06-.17.11-.34.16-.52a7,7,0,0,0,.11-.8c.06-.5.09-1,.12-1.5s0-.76.07-1.14c0-.57.08-1.14.11-1.71l.12,3c0,.5.07,1,.11,1.5,0,.11,0,.22,0,.33s0,.33,0,.5c0,.55,0,1.09-.07,1.64,0,.2,0,.41,0,.62s0,.7,0,1a1.49,1.49,0,0,0,.62,1.16v.63c1.5-.09,3-.14,4.49-.21l.36,0,0-.67v.67c3.59-.18,7.18-.36,10.77-.46.06-.74,0-1.48,0-2.23,0-.27,0-.54,0-.81,0-.76,0-1.52,0-2.28,0-1.32.06-2.64.09-4,0-.26,0-.51,0-.76,0,.55,0,1.11,0,1.66,0,2.6,0,5.19.09,7.79,0,.19,0,.39,0,.58l1.45,0,1.45,0q0-3.12.12-6.25c0-.58,0-1.16,0-1.74l0,.66c0,.71.07,1.42.1,2.12,0,.89.1,1.77.18,2.65.05.5.1,1,.18,1.48s.14.72.21,1.08H113s0-.08,0-.13a.65.65,0,0,0,.16.13l1.48,0a1.29,1.29,0,0,0,.57-.77c.06-.42.13-.84.15-1.27a1.48,1.48,0,0,0,0-.21,2.56,2.56,0,0,0,.38.8,1.26,1.26,0,0,0,1.15.59c0,.31,0,.61,0,.92l.78,0,1.43,0c0-.12,0-.25,0-.37,0-.53.07-1.06.1-1.59.05-.86.11-1.71.16-2.56a.8.8,0,0,0,.85.29.81.81,0,0,0,.58-.76c0-.56.07-1.11.07-1.67v-1c0-.8,0-1.6,0-2.4,0-1.24,0-2.48,0-3.72,0-1,0-2,0-3.08,0-1.22,0-2.44-.09-3.66s-.09-2.58-.14-3.87c0-.56-.05-1.12-.08-1.67,0-.33,0-.65,0-1,0-.5-.1-1-.15-1.5v-.27c0-.41,0-.82,0-1.22L117.5,88a8,8,0,0,0-.19.85,25.16,25.16,0,0,0-.27,2.74c0,.59-.1,1.18-.15,1.78,0-.37,0-.75,0-1.12,0-.69,0-1.38,0-2.08,0-.53,0-1.07,0-1.61,0-.21,0-.42,0-.63l-7.47-.73c-1.15-.12-2.31-.22-3.46-.32-.06.13-.11.27-.17.4a8.62,8.62,0,0,0-.43,1.48c-.06.33-.12.66-.17,1a1.36,1.36,0,0,0-1.57,1c-.14.61-.3,1.21-.43,1.82-.05-.71-.16-1.42-.25-2.14a1.56,1.56,0,0,0-.38-.64,1.24,1.24,0,0,0-.35-.25l0-.74c0-.39,0-.77,0-1.15s0-.7,0-1v0c-1-.09-2-.18-3-.25,0,.12,0,.25-.05.38-.12.92-.21,1.85-.29,2.78s-.14,1.6-.19,2.4c-.12,1.62-.23,3.23-.34,4.85,0,.22,0,.43,0,.64a.07.07,0,0,1,0,.05v0c0-2.32-.12-4.63-.2-6.94,0-.76-.09-1.52-.14-2.28,0-.39,0-.78,0-1.17a6.42,6.42,0,0,0,0-.76L94,86c-.19.46-.39.92-.56,1.39Zm1.75,12.36c-.06-.45-.14-.9-.2-1.34l-.09-.65a3.09,3.09,0,0,0-.25-.78,2.63,2.63,0,0,0-.2-.33c0-.32,0-.65,0-1s.08-.52.13-.79c.15-.88.31-1.75.49-2.63,0,.86,0,1.71.08,2.56,0,1.76.06,3.52.06,5.27,0-.11,0-.23,0-.34Z"/><path class="a" d="M102.6,46.43a3.68,3.68,0,0,1-2.67,1.11l-.24,0a2,2,0,0,0,0,.35q-.3,4.93-.63,9.87c0-.67,0-1.32-.05-2,0-1.24,0-2.47-.09-3.7-.06-1.54-.13-3.09-.21-4.63l-2.23-.19L94.07,47l-.21,1.64v.07c0,.11,0,.22,0,.34,0-.12,0-.23,0-.34q-.6,4.39-1.18,8.8c-.11.89-.19,1.79-.27,2.69l-.06-3.43c0-1.37,0-2.75,0-4.12,0-.62.07-1.24.11-1.86a1.42,1.42,0,0,0-.12-.65V48.93c0-.68,0-1.36,0-2l-3.93-.33c0,.67-.1,1.34-.14,2-.1,1.57-.2,3.14-.29,4.7-.07,1.12-.16,2.23-.21,3.35,0,1.36-.11,2.71-.17,4.07l0,0a1.62,1.62,0,0,0-.78,1c-.16,1.23-.38,2.45-.47,3.69-.07.78-.13,1.56-.19,2.34-.12,1.45-.24,2.9-.35,4.35-.1,1.18-.19,2.37-.28,3.55l.07,0c1,0,1.92.07,2.87.12l6.12.37c0-.12,0-.25,0-.38.06-1.27.1-2.54.17-3.81L95,66.82c0-1,.18-2,.28-3.08l.45-4.81,0,1c.06,2.81.16,5.63.24,8.45,0,.37,0,.75.08,1.11.07.95.13,1.91.2,2.86l.18,2.5c0,.47.06.94.1,1.41,1.39.11,2.78.24,4.16.36l1.8.14a1.94,1.94,0,0,0,.31-.26l.25-.32a4.87,4.87,0,0,0,.21-.53l0-.16a3,3,0,0,0,.06-.59,3.39,3.39,0,0,0,0-.55c0-.39,0-.77,0-1.16v-.32a1.7,1.7,0,0,0,.75.19,1.54,1.54,0,0,0,.81-.22,1.58,1.58,0,0,0,.73-1,13,13,0,0,0,.23-1.5s0,0,0,0a4.26,4.26,0,0,0,.28.78,6.91,6.91,0,0,0,.38.65,1.5,1.5,0,0,0,1.69.68,1.27,1.27,0,0,0,.4-.17c0,.27,0,.53.08.8,0,.58.17,1.15.27,1.73a1.49,1.49,0,0,0,.36.62,1.45,1.45,0,0,0,1,.41,1.43,1.43,0,0,0,1.26-.79c0,.25,0,.49,0,.73s0,.55.07.82a4,4,0,0,1,1.2-1.12,3.81,3.81,0,0,1,1.73-.51l0-2c0-1.33.05-2.65.08-4l0-1.86c0,.45,0,.9,0,1.35,0,.28,0,.56,0,.85l.29,4.78c0,.31,0,.63,0,.94l.66.09,2.68.45a.49.49,0,0,0,0-.12c0-.95,0-1.9.05-2.86a.77.77,0,0,0,.52-.21,2,2,0,0,0,.28-.23c.08.6.17,1.19.25,1.78h0a.36.36,0,0,1,0,.1h0v0h0c.08.54.21,1.07.31,1.6A.75.75,0,0,0,120,76l1.41.25h0c-.19-1.35-.37-2.7-.56-4.06-.44-3.25-.86-6.51-1.29-9.77-.07-.53-.15-1.06-.23-1.59-.31-2.16-.57-4.35-1-6.5-.23-1.25-.45-2.51-.68-3.76-.08,1.05-.18,2.11-.25,3.17-.13,1.7-.25,3.4-.37,5.09,0,.24,0,.48,0,.71a.28.28,0,0,0,0-.09L116.81,54c0-1.22-.12-2.44-.18-3.66-.07-1.41-.15-2.83-.24-4.24l-6.09-.16-7.11-.22a3.88,3.88,0,0,1-.59.76ZM97.15,48h0v0Z"/><path class="b" d="M87.41,86.38a3.65,3.65,0,0,1-.5,2.4,3.17,3.17,0,0,1-.16.66l-.06.16a1.36,1.36,0,0,0,0,.8,1.49,1.49,0,0,0,2.73.35,6.7,6.7,0,0,0,.72-2.63c0-.4.1-.8.14-1.21s.09-.76.13-1.14l-1.56-.07a3.75,3.75,0,0,1-1.44.68Z"/><path class="b" d="M96.24,51.14v0Z"/><path class="b" d="M95,60.16l0-.22,0-.2-.06.42Z"/><path class="a" d="M90.26,3c0,.56,0,1.11-.05,1.67a1.72,1.72,0,0,0-2.92,1.23c0,1.48-.12,3-.13,4.45l0,2.4-.06,4.27L87,17c.2,2.21.37,4.42.55,6.64s.22,4.35.32,6.52c0,1.08.07,2.17.07,3.25l.1,0a1.69,1.69,0,0,0,.56-.09c.09.43.19.85.3,1.28,3.72-.13,7.45-.21,11.17-.26l1.44,0c0-.1.06-.2.08-.3a4.94,4.94,0,0,0,.12-.94,11.75,11.75,0,0,0,0-1.19h0c.08.81.17,1.62.28,2.42,3.55,0,7.11-.07,10.66-.2l1.66-.05V34l.27-2c.07-.52.12-1,.16-1.57,0,.41,0,.81.06,1.22s.07.65.12,1c0,.16.05.31.08.47a3.07,3.07,0,0,0,.22.6,1.22,1.22,0,0,0,.18.36l1.65-.08c0-.05,0-.1.07-.14a4,4,0,0,1,1.33-1.34c-.09-1.18-.18-2.36-.26-3.54-.14-1.86-.3-3.71-.45-5.57q-.78-9.72-1.47-19.45l-1.94-.11-.68,0c-.06.17-.1.34-.15.52a11.94,11.94,0,0,0-.23,1.59c-.13,1.1-.16,2.22-.19,3.33s-.06,2.2-.11,3.3l-.12,2.36,0-2.46c0-1.95-.14-3.9-.22-5.84a1.49,1.49,0,0,0-1.07-1.4h0c0-.51,0-1,0-1.51-1.89-.1-3.78-.17-5.67-.25v.37c-.09,1.74-.17,3.48-.26,5.22,0,1.16-.15,2.32-.23,3.48q-.18,2.89-.38,5.77c-.14,2.12-.32,4.24-.49,6.35l-.12-3c0-1,0-1.95-.05-2.93q0-3-.07-6.09c0-1.37,0-2.75,0-4.12,0-1.18,0-2.36,0-3.53,0-.54,0-1.07-.05-1.6l-3.93-.14c0,.79,0,1.59,0,2.39,0,.25,0,.5,0,.74,0-.15,0-.3,0-.45,0-.89,0-1.79,0-2.68l-3.94-.11a1.07,1.07,0,0,0-.16.14,1.64,1.64,0,0,0-.21.25l0-.4L90.93,3h-.67V3Z"/><path class="c" d="M34.12.76l-2.85,0c-1.92,0-3.85,0-5.78,0L13.7.76H1.5A.52.52,0,0,0,1,1.29L1,4.22c0,1,0,2,0,3,0,2,0,4,0,5.94Q.94,19.1.93,25q0,5.67,0,11.34a.6.6,0,0,0,.6.6c2,0,3.94.08,5.91.09l5.93,0,12,0,11.29,0a.77.77,0,0,0,0-1.54l-23.83.07H7.17c-1.69,0-3.38,0-5.07.07,0-7.56,0-15.13,0-22.69V4.22c0-.8,0-1.61,0-2.41,7.66,0,15.33,0,23,0,2,0,4,0,6,0q1.48,0,3,0h2q0,5.7,0,11.41c0,3.92,0,7.85,0,11.77,0,2.25,0,4.51,0,6.76a.44.44,0,1,0,.87,0q0-5.93,0-11.85l0-11.81c0-2.27,0-4.55,0-6.82A.5.5,0,0,0,36.71.8a1.41,1.41,0,0,0-.35-.05h-1l-1.26,0Z"/><path class="c" d="M.6,42.3a.56.56,0,0,0-.56.56c0,1.86,0,3.72,0,5.58s0,3.72,0,5.59c0,3.72,0,7.45,0,11.17v6.36c0,2.13,0,4.25,0,6.37a.6.6,0,0,0,.58.59l1.29,0H6.13l5.55,0L23,78.68l12.72,0a.78.78,0,0,0,.78-.78c0-1.58,0-3.17,0-4.76a.75.75,0,0,0-.74-.75.76.76,0,0,0-.75.75l0,4-10.48,0-11.28.07-6.23,0H2.22l-1,0c0-1.62,0-3.25,0-4.88,0-1.85,0-3.71,0-5.56q0-5.6,0-11.19V49.33c0-2,0-3.94,0-5.9q10.83,0,21.67,0H35.26q0,10.88.06,21.75c0,.6,0,1.2,0,1.8a.35.35,0,1,0,.7,0c0-3.72,0-7.44,0-11.16s0-7.4,0-11.1V43.09a.47.47,0,0,0,0-.1s0,0,0-.05v-.08a.49.49,0,0,0-.39-.47.88.88,0,0,0-.27-.06H30.35l-5.62,0-11.11,0H.6Z"/><path class="c" d="M35,83l-.49,0H33.24l-2.55,0-5,0L15.48,83Q8,83,.6,82.93a.62.62,0,0,0-.6.61q0,10.17,0,20.34c0,4.91,0,9.82,0,14.73a.55.55,0,0,0,.55.55q10.23.09,20.44.14l7.35,0,3.68,0h3.16a3.42,3.42,0,0,1,.45,0,.77.77,0,0,0,.56-.23.82.82,0,0,0,.24-.57c0-3.36,0-6.73.05-10.09s0-6.8,0-10.21V90.93c0-2.46,0-4.93,0-7.39a.83.83,0,0,0-.83-.83A.86.86,0,0,0,35,83ZM10.77,84.13l10.24,0,7.35,0H32l1.82,0h1l0,4.54c0,1.71,0,3.41,0,5.12q0,5.11,0,10.24c0,2.44,0,4.89,0,7.33,0,2.2,0,4.39,0,6.58H30.64l-5.1,0-10.22,0-14.16.1c0-6.63,0-13.27,0-19.91q0-7,0-14Z"/><path class="c" d="M75.24,0H43.37a.68.68,0,0,0-.67.67q0,12.87,0,25.74v9.33a.66.66,0,0,0,.66.66q6.42,0,12.82,0l12.92.07,9.34.05a.77.77,0,0,0,.77-.77l.06-4.2c0-1.41,0-2.82,0-4.23,0-2.82,0-5.64,0-8.46a.79.79,0,0,0-.23-.55c0-2.77,0-5.53,0-8.3q0-4.66,0-9.33a.63.63,0,0,0-.62-.63C77.4,0,76.36,0,75.31,0Zm2.59,1.33c0,4.06,0,8.11,0,12.17,0,1.61,0,3.21,0,4.82a.79.79,0,0,0-.23.55c0,2.82,0,5.64,0,8.46,0,1.41,0,2.82,0,4.23,0,1.14,0,2.29,0,3.43-8.35.06-16.71.12-25.06.13H48c-1.32,0-2.64,0-4,0V1.36h32c.59,0,1.18,0,1.78,0Z"/><path class="c" d="M73.51,41.91H67.87l-11.31,0L44,42a.6.6,0,0,0-.6.6q0,11.36,0,22.7,0,6.19,0,12.38a.59.59,0,0,0,.58.58q5.72,0,11.42,0H74.94a.6.6,0,0,0,.24,0h3.87a.59.59,0,0,0,.58-.58V66.34l0-11.43c0-2.06,0-4.12,0-6.17s0-4.12,0-6.18a.65.65,0,0,0-.64-.64H73.51Zm-28.94,13q0-5.88,0-11.75,11,0,22,0H78.41c0,1.69,0,3.38,0,5.07,0,1.9,0,3.81,0,5.71l0,11.44c0,3.87,0,7.75,0,11.62H75.18a.6.6,0,0,0-.24,0H56.2l-11.65,0q0-11.07,0-22.14Z"/><path class="c" d="M78.47,84.84h-2l-2.67,0H44a.55.55,0,0,0-.54.54q0,10.82,0,21.63,0,6.72,0,13.45a.51.51,0,0,0,.51.51q10.86,0,21.71.06l13.37.09a.67.67,0,0,0,.66-.66q0-10.9.08-21.79,0-6.65,0-13.29a.77.77,0,0,0-.76-.76.75.75,0,0,0-.58.27Zm-12.9,1h6.82l3.35,0h2.54q0,10.65,0,21.29,0,6.31,0,12.63-10.53.07-21.06.11-6.42,0-12.83,0,0-10.58,0-21.16,0-6.42,0-12.85Z"/><path class="c" d="M84.35.92a.68.68,0,0,0-.67.67c.07,8.17,0,16.34,0,24.52,0,3.52,0,7,0,10.55a.6.6,0,0,0,.6.6H96.6c4.1,0,8.19,0,12.28,0l5.26,0c1.76,0,3.52,0,5.28,0a.7.7,0,0,0,.7-.69c0-7.12,0-14.24,0-21.36a.63.63,0,0,0-.14-.4V7.23c0-1.88,0-3.76,0-5.64a.58.58,0,0,0-.57-.57l-3-.05h-3l-6.07,0L95.16.92H84.35Zm24.32,1.31,5.33,0,2.67,0c.73,0,1.47,0,2.2,0,0,.79,0,1.58,0,2.37,0,1,0,2,0,3.07v7.29a.68.68,0,0,0-.14.41c0,6.89,0,13.78,0,20.68l-5.33,0-6.11,0L95,36.06H85q0-12,0-23.95V6.84c0-1.53,0-3.06,0-4.59h5.75c6,0,11.94,0,17.91,0Z"/><path class="c" d="M93.13,42.48H85a.69.69,0,0,0-.68.68q0,13.59,0,27.18,0,3.94,0,7.89a.65.65,0,0,0,.65.65q13.64,0,27.26.07L120,79a.81.81,0,0,0,.8-.8q0-6.45,0-12.91c0-2.14,0-4.28,0-6.42s0-4.36,0-6.54a.86.86,0,0,0-.27-.6V46.57c0-1.14,0-2.27,0-3.41a.59.59,0,0,0-.16-.4.65.65,0,0,0-.4-.16l-.36,0a2.25,2.25,0,0,0-.26,0h-2.67l-3.33,0c-2.25,0-4.5,0-6.75,0H93.13Zm18.94,1.33,4,0,2,0h1.41c0,2.67,0,5.33,0,8a.79.79,0,0,0-.27.6c0,2.13,0,4.27,0,6.4s0,4.37,0,6.56q0,6.06,0,12.13c-2,0-4,0-5.93.06l-6.79,0q-6.81,0-13.62,0H85.6q.06-13.29,0-26.59V43.84H97.44q7.31,0,14.63,0Z"/><path class="c" d="M92.51,84.87H86.44a.77.77,0,0,0-.76.76c.06,9.72,0,19.44.06,29.17,0,2,0,3.94,0,5.9a.7.7,0,0,0,.69.7q14.6,0,29.19.08l5.89.06a.85.85,0,0,0,.84-.84c0-4,0-8.11,0-12.17a.91.91,0,0,0-.3-.66v-1.68q0-7.32,0-14.65c0-2,0-3.94,0-5.91a.63.63,0,0,0-.62-.63c-.56,0-1.12-.09-1.67-.09h-5.53l-7.29,0H92.51Zm23,1.5H120c.23,0,.47,0,.7,0h.2q0,10.78,0,21.57a.91.91,0,0,0-.3.66c0,3.78,0,7.56,0,11.34-2.17,0-4.33,0-6.5.06l-7.31,0-14.67,0h-5q0-14.2,0-28.41c0-1.74,0-3.47,0-5.21H99.38q8.06,0,16.11,0Z"/><path class="c" d="M20.17,11.52a2.16,2.16,0,0,0-.59.54,9.11,9.11,0,0,0-.72.92c-.24.35-.48.71-.7,1.08l-.69,1.12a.91.91,0,0,0-.14.6.84.84,0,0,0,.32.51.81.81,0,0,0,1.12-.18l.56-.91c.14-.24.28-.48.43-.71l.32-.48v.08l0,.84L20,16c0,.91,0,1.82,0,2.73s.06,1.75.11,2.62c0,.38.05.75.07,1.12s.07.8.14,1.2a3.55,3.55,0,0,0,.17.64.72.72,0,0,0,.78.41.74.74,0,0,0,.58-.83,8.36,8.36,0,0,1-.12-1c0-.31-.07-.62-.09-.92,0-.62-.08-1.24-.11-1.86,0-1,0-2,0-3,0-.55,0-1.11,0-1.66,0-.37,0-.73.05-1.1,0-.55.05-1.1,0-1.65,0,.07,0,.14,0,.21a3.64,3.64,0,0,0,0-.74,1,1,0,0,0-.59-.71,1.45,1.45,0,0,0-.36-.08h0a1,1,0,0,0-.44.11Zm1.39,8.68v0Z"/><path class="c" d="M23.87,23.53l-.54.18c-.66.2-1.31.39-2,.54a13.2,13.2,0,0,1-2.25.29c-1.27,0-2.54,0-3.81,0a.9.9,0,0,0-.59.18.83.83,0,0,0-.29.55.81.81,0,0,0,.73.88c1,0,1.93,0,2.9,0A18,18,0,0,0,20.88,26a23.23,23.23,0,0,0,3.68-1,.76.76,0,0,0,.43-.45.83.83,0,0,0-.48-1.06.63.63,0,0,0-.26-.05,1.27,1.27,0,0,0-.38.07Zm-4.6,1h0Z"/><path class="c" d="M17,52.88a3.26,3.26,0,0,0-.83.11,3.12,3.12,0,0,0-1.4.77,2.29,2.29,0,0,0-.68,1.42,1.63,1.63,0,0,0,.53,1.29.56.56,0,0,0,.78.07.56.56,0,0,0,.08-.79,2.62,2.62,0,0,1-.22-.25l-.05-.1v0a1.46,1.46,0,0,1,0-.22,1.34,1.34,0,0,1,.09-.24,1.86,1.86,0,0,1,.21-.28,1.76,1.76,0,0,1,.3-.24,2.72,2.72,0,0,1,.46-.21,3.79,3.79,0,0,1,.66-.11l.52,0,.27.11.2.14.06.08a1.73,1.73,0,0,1,.14.31,2,2,0,0,1,.09.49,5,5,0,0,1-.1,1,7.32,7.32,0,0,1-.56,1.43A11.46,11.46,0,0,1,16,59.71,19.37,19.37,0,0,1,13.44,62c-.22.16-.44.34-.68.49l-.67.44-.44.25-.12,0a.76.76,0,0,0-.49.31.84.84,0,0,0-.14.58.7.7,0,0,0,.18.39.82.82,0,0,0,.32.23.76.76,0,0,0,.59,0l0,0,.32-.07.36,0a11.76,11.76,0,0,1,2.64.31c1.7.41,3.36,1,5,1.53l1.21.4.78.26.41.13c.21.06.45.13.67.17a1.64,1.64,0,0,0,.54,0l.36-.12.2-.1a1,1,0,1,0-.86-1.86l-.05,0a3,3,0,0,1-.32-.06c-.62-.15-1.23-.33-1.84-.49s-1.15-.34-1.73-.51c-1.18-.34-2.36-.66-3.55-.92A17.9,17.9,0,0,0,14.39,63l.23-.18a19.12,19.12,0,0,0,2.09-1.93,11.92,11.92,0,0,0,1.94-2.63,7.43,7.43,0,0,0,.59-1.43,6.72,6.72,0,0,0,.18-.87,4.6,4.6,0,0,0,0-.91,2.75,2.75,0,0,0-.5-1.38,1.58,1.58,0,0,0-.59-.5,2.61,2.61,0,0,0-.77-.27l-.36,0Zm-1.8,2.38v0Zm0,.18,0,.06,0-.06Zm-2.29,9.09h0Zm10.82.76h0Zm-.24,0h0Z"/><path class="c" d="M16.05,96.27a5.53,5.53,0,0,0-1.08.17.93.93,0,0,0-.7.49.3.3,0,0,0,.08.31c.08.11.26.11.38.11l.43,0a.2.2,0,0,0,0-.39H15a5.06,5.06,0,0,1,.87-.12c.62,0,1.23,0,1.85,0l.94.07c.62.06,1.25.11,1.88.21a3.09,3.09,0,0,1-.33.39,7,7,0,0,1-1.2,1,12,12,0,0,1-1.56.78l-.59.25-.32.14-.26.11a2.85,2.85,0,0,0-.41.26.51.51,0,0,0-.21.39v.16a.62.62,0,0,0,.12.26l.1.15a.83.83,0,0,0,.28.21,1.6,1.6,0,0,0,.49.12h.45l.52,0a13.77,13.77,0,0,1,2.13.26,5.42,5.42,0,0,1,1.11.39,2.18,2.18,0,0,1,.76.7,2.24,2.24,0,0,1,.13.27,3.23,3.23,0,0,1,.08.53,3,3,0,0,1-.05.6,3.38,3.38,0,0,1-.26.69,3.78,3.78,0,0,1-.44.61,3.39,3.39,0,0,1-.66.54,4.19,4.19,0,0,1-.71.34,4.83,4.83,0,0,1-1,.15,8.5,8.5,0,0,1-1.75-.13,4.66,4.66,0,0,1-.71-.26,6,6,0,0,1-1.08-.8c-.29-.28-.55-.58-.83-.87l-.48-.5c-.3-.31-.59-.63-.87-1a.72.72,0,0,0-1.11.92c.39.46.81.9,1.22,1.33s.65.71,1,1a6.41,6.41,0,0,0,1.79,1.25,4.62,4.62,0,0,0,1,.28,6,6,0,0,0,1,.1,9.74,9.74,0,0,0,1.08,0,4.29,4.29,0,0,0,1.11-.22,3.63,3.63,0,0,0,.82-.39,4.34,4.34,0,0,0,2-2.42,3.49,3.49,0,0,0,.18-1.11,4.18,4.18,0,0,0-.05-.61,3.8,3.8,0,0,0-.15-.58,2.61,2.61,0,0,0-.28-.52,1.85,1.85,0,0,0-.34-.4,3.63,3.63,0,0,0-.46-.41,4.19,4.19,0,0,0-.58-.34,6.21,6.21,0,0,0-1-.34,9,9,0,0,0-1.26-.22,8.5,8.5,0,0,0-.87-.07l0,0a11.2,11.2,0,0,0,1.09-.56,7.35,7.35,0,0,0,1.66-1.33,3.76,3.76,0,0,0,.57-.8,1.13,1.13,0,0,0,.09-.45.63.63,0,0,0,0-.3.6.6,0,0,0-.09-.15l-.12-.11a1.39,1.39,0,0,0-.21-.11l-.23,0a.65.65,0,0,0-.24,0h-.54l-1.47,0-1.5,0-1,0Zm-.16.59h0Zm-1.22.27h0Zm5.84.06,0,0,0,0Z"/><path class="c" d="M63.46,12.4c-.35,3.38-.71,6.77-1.06,10.16a.6.6,0,0,0-.32.5c0,.36,0,.71,0,1.07s0,.74.08,1.11a.77.77,0,0,0,.32.5.76.76,0,0,0,.6.14A.8.8,0,0,0,63.7,25c0-.41,0-.82.09-1.22l.12-1.27.21-2.18.54-5.19.27-2.57a.75.75,0,0,0-.66-.81H64.2a.75.75,0,0,0-.74.67Z"/><path class="c" d="M59.21,11.4c-.37,1-.83,1.87-1.28,2.79-.36.65-.71,1.29-1.09,1.93-.25.43-.5.86-.76,1.29s-.52.84-.77,1.27c-.15.26-.28.52-.42.79a8.53,8.53,0,0,0-.32.84.92.92,0,0,0,0,.71.89.89,0,0,0,.73.52l.52,0,.34-.11.23-.12c.16-.09.33-.17.49-.24a13.67,13.67,0,0,1,1.59-.66,9.78,9.78,0,0,1,1.3-.3A13.38,13.38,0,0,1,61.22,20a11.65,11.65,0,0,1,2.7.18,3.71,3.71,0,0,1,.66.24l0,0a.86.86,0,1,0,1-1.39,3.77,3.77,0,0,0-1.38-.55,9.25,9.25,0,0,0-1.48-.21,12.51,12.51,0,0,0-1.5,0c-.54,0-1.07.05-1.6.11a10.08,10.08,0,0,0-2.36.59l.31-.5.62-1,1-1.64A21.31,21.31,0,0,0,61,12.09a1,1,0,0,0-.56-1.25,1,1,0,0,0-.34-.06,1,1,0,0,0-.91.62Zm-.79,9-.1,0,.1,0Z"/><path class="c" d="M67,53.61c-.46,0-.91.14-1.37.22s-1,.18-1.44.25-1,.15-1.43.2-1,.09-1.49.12h0a6.42,6.42,0,0,1-.76,0l-.08-.06a.68.68,0,0,0-.81,0,.64.64,0,0,0-.2.73,2,2,0,0,1,0,.24,14.49,14.49,0,0,1-.92,2.28c-.18.39-.37.78-.57,1.15a2.12,2.12,0,0,1-.11.21,1.36,1.36,0,0,0-.09.36.54.54,0,0,0,0,.25,1,1,0,0,0,.19.38,1,1,0,0,0,.18.18,1.64,1.64,0,0,0,.29.16,1.43,1.43,0,0,0,.54.09h.48c.21,0,.41,0,.61.06a9.87,9.87,0,0,1,1.09.16,8,8,0,0,1,1.67.57,5.63,5.63,0,0,1,.84.61,3.23,3.23,0,0,1,.38.45,3.27,3.27,0,0,1,.3.66,3.22,3.22,0,0,1,.1.54,3,3,0,0,1,0,.42,3.7,3.7,0,0,1-.28.72,3.07,3.07,0,0,1-.43.59,4.23,4.23,0,0,1-.61.51c-.15.08-.31.16-.48.23A3.2,3.2,0,0,1,62,66a5.22,5.22,0,0,1-1-.09,4.27,4.27,0,0,1-.67-.27,2.05,2.05,0,0,1-.94-.87,7.25,7.25,0,0,1-.36-.87c-.08-.2-.15-.39-.22-.58a3.38,3.38,0,0,1-.08-.34.88.88,0,0,0-1-.7.86.86,0,0,0-.71,1A10.4,10.4,0,0,0,57.51,65a3.5,3.5,0,0,0,.29.62,4.53,4.53,0,0,0,.45.63,4,4,0,0,0,1.32,1,4.23,4.23,0,0,0,1.35.41,5.87,5.87,0,0,0,1.51,0,4.12,4.12,0,0,0,2.49-1.51,4.28,4.28,0,0,0,.67-1.15,3.49,3.49,0,0,0,.28-1.39,3.8,3.8,0,0,0-1.12-2.6,5.32,5.32,0,0,0-1.11-.84,5.94,5.94,0,0,0-1.42-.6,10.34,10.34,0,0,0-1.44-.33l-.73-.08c-.24,0-.47,0-.71-.06.18-.35.35-.71.51-1.07s.37-.79.52-1.2a8.14,8.14,0,0,0,.35-1.09l.49,0,.83-.11c.44-.06.89-.13,1.33-.21L64.93,55l1-.21a12.32,12.32,0,0,1,1.7-.29h.24l0,0a1.84,1.84,0,0,1,.22.17.43.43,0,1,0,.51-.7l0-.05,0,0a1.24,1.24,0,0,0-.62-.35,2,2,0,0,0-.42,0l-.55,0Zm-5.56.78h0Z"/><path class="c" d="M65,92.85A10.14,10.14,0,0,0,63.48,94a11.76,11.76,0,0,0-1.41,1.5,13.06,13.06,0,0,0-1.9,3.45,22.31,22.31,0,0,0-1.12,3.93l0,.1c-.22.06-.43.14-.63.21a5.64,5.64,0,0,0-1.23.77,5.85,5.85,0,0,0-.82.67l-.18.2a1,1,0,0,0,0,1.25,1,1,0,0,0,.69.37,1.06,1.06,0,0,0,.53-.09,1.16,1.16,0,0,0,.4-.33,4.79,4.79,0,0,1,.55-.46l.28-.22c-.05.52-.08,1-.08,1.58a6.1,6.1,0,0,0,.21,1.9,2.78,2.78,0,0,0,1.06,1.55,2.21,2.21,0,0,0,1.67.24,3.57,3.57,0,0,0,1.68-.92,3.92,3.92,0,0,0,.95-1.48,3.24,3.24,0,0,0,.14-1.85,4.6,4.6,0,0,0-.82-1.64A4.42,4.42,0,0,0,62,103.53c-.2-.11-.41-.21-.62-.3a5.24,5.24,0,0,0-.88-.26c0-.26.11-.51.16-.77a20,20,0,0,1,1.61-4.44,11.62,11.62,0,0,1,1.61-2.2,9.85,9.85,0,0,1,1.61-1.35l.16-.1a.76.76,0,0,0,.36-.39.68.68,0,0,0,0-.54.66.66,0,0,0-.38-.35.76.76,0,0,0-.27,0,.5.5,0,0,0-.27.07Zm-4.87,12a1.2,1.2,0,0,1,.2,0,5.76,5.76,0,0,1,1,.39,4.7,4.7,0,0,1,.59.4,4.15,4.15,0,0,1,.42.52,3.94,3.94,0,0,1,.26.55,1.88,1.88,0,0,1,.06.31,3.29,3.29,0,0,1,0,.44,3.47,3.47,0,0,1-.23.61,3.69,3.69,0,0,1-.29.4,3.83,3.83,0,0,1-.44.36,3.54,3.54,0,0,1-.39.19,2.08,2.08,0,0,1-.36.06l-.2,0h0l-.16-.12c-.06-.07-.12-.13-.17-.2a4.54,4.54,0,0,1-.21-.45,5.12,5.12,0,0,1-.15-1,16.56,16.56,0,0,1,.13-2.44ZM60,107.18v0Zm.55,1.84.07,0-.07,0Z"/><path class="c" d="M94.88,10.28a1,1,0,0,0-.68.37A1.17,1.17,0,0,0,94.36,12a3.75,3.75,0,0,0,1.1.92,9.53,9.53,0,0,0,3,1.19,13.29,13.29,0,0,0,3.44.27,23.21,23.21,0,0,0,3.44-.38l.66-.14c-.31.45-.58.91-.85,1.38-.58,1-1.12,2-1.66,3.07-.34.66-.7,1.31-1,2-.43.86-.86,1.72-1.28,2.58-.34.67-.64,1.35-1,2s-.62,1.45-1,2.15a1.78,1.78,0,0,0-.22.58,1.24,1.24,0,0,0,.12.76.9.9,0,0,0,1.19.44c.2-.11.4-.21.59-.34a4.09,4.09,0,0,0,.44-.39c.26-.27.51-.55.75-.83l.78-.93c.43-.52.85-1,1.27-1.57a.81.81,0,0,0-.19-1.13.78.78,0,0,0-.61-.14.92.92,0,0,0-.52.32l-.69.8.06-.14c.13-.3.26-.62.4-.92L103.89,21c.29-.62.61-1.22.93-1.83s.61-1.2.92-1.79.78-1.46,1.21-2.16c.22-.36.47-.71.72-1.06a10,10,0,0,1,.75-1l0,0,.6-.21a2.28,2.28,0,0,0,.51-.27.46.46,0,0,0,.12-.12l.13-.13a2.1,2.1,0,0,0,.13-.26.73.73,0,0,0-.25-.86,1.82,1.82,0,0,0-.31-.16,1.05,1.05,0,0,0-.5,0,1.07,1.07,0,0,0-.38.13,1.79,1.79,0,0,0-.36.21,4.67,4.67,0,0,0-.68.57c-.24.09-.47.16-.71.23a21.91,21.91,0,0,1-5.08.83A13.15,13.15,0,0,1,99.49,13a.75.75,0,0,0,0-.29,4.11,4.11,0,0,0-.28-.6,2.37,2.37,0,0,0-.5-.59,4.93,4.93,0,0,0-1.43-.85,5.73,5.73,0,0,0-1.58-.4h-.3a2.59,2.59,0,0,0-.48,0Zm.52,1.09a4.8,4.8,0,0,1,.75.09,6.17,6.17,0,0,1,1.24.46,3.59,3.59,0,0,1,.6.42,2.85,2.85,0,0,1,.23.26,1.3,1.3,0,0,1,.08.17,8.66,8.66,0,0,1-1.89-.72,5.25,5.25,0,0,1-1-.64l0,0Z"/><path class="c" d="M101.63,20a8,8,0,0,0-1.29.19.65.65,0,0,0,.23,1.28,6.86,6.86,0,0,1,1.19-.19,13.86,13.86,0,0,1,2.12.22l1.28.18c1.14.19,2.27.37,3.41.58a.64.64,0,0,0,.69-.58.6.6,0,0,0-.14-.46.66.66,0,0,0-.43-.23q-1.05-.2-2.1-.36l-1.41-.24-1.72-.25-.72-.1a7.16,7.16,0,0,0-.8-.05Z"/><path class="c" d="M102.63,53.52a5.29,5.29,0,0,0-1.32.31,4.79,4.79,0,0,0-1.17.65,3.78,3.78,0,0,0-.88,1,3,3,0,0,0-.43,1.29,4.18,4.18,0,0,0,0,.71,4.52,4.52,0,0,0,.12.64,5.38,5.38,0,0,0,.56,1.25c.24.4.49.8.75,1.19s.56.76.84,1.14.5.74.74,1.11a9.8,9.8,0,0,1,.91,1.87,3.55,3.55,0,0,1,.16.8,1.81,1.81,0,0,1,0,.4c0,.09-.06.18-.1.27h0l0,0-.13.06h-.2l-.35-.14a4.48,4.48,0,0,1-.44-.32,5.31,5.31,0,0,1-.72-.92,7,7,0,0,1-.65-1.42,15.65,15.65,0,0,1-.4-2.15c0-.4-.1-.8-.13-1.2a.73.73,0,0,0-.3-.47.71.71,0,0,0-.55-.12.73.73,0,0,0-.47.29.79.79,0,0,0-.12.56c0,.38.06.75.1,1.13a15.33,15.33,0,0,0,.37,2.15,7.21,7.21,0,0,0,1.18,2.46,3.74,3.74,0,0,0,2,1.55,2,2,0,0,0,.69.07,2.06,2.06,0,0,0,.6-.17,1.76,1.76,0,0,0,.58-.43,1.55,1.55,0,0,0,.3-.53,2.78,2.78,0,0,0,.14-.55,2.74,2.74,0,0,0,0-.7,3.12,3.12,0,0,0-.13-.69q-.1-.37-.24-.72a12,12,0,0,0-1.35-2.39c-.25-.36-.49-.71-.76-1s-.55-.73-.8-1.11c-.09-.15-.19-.3-.29-.45a5.82,5.82,0,0,1-.54-1.09,3.82,3.82,0,0,1-.15-.82,2.12,2.12,0,0,1,0-.44,2.78,2.78,0,0,1,.16-.4,2.85,2.85,0,0,1,.38-.53,3.38,3.38,0,0,1,.55-.45,4.32,4.32,0,0,1,.85-.38,5.55,5.55,0,0,1,1.08-.19,3.14,3.14,0,0,1,.61,0,2,2,0,0,1,.47.17,1.22,1.22,0,0,1,.19.12l.06.07s0,.08,0,.13l0,.14v0a6,6,0,0,1-.49,1.17,5.72,5.72,0,0,1-.66,1,3.51,3.51,0,0,1-.55.47,7.83,7.83,0,0,1-.79.34.51.51,0,0,0-.25.68.53.53,0,0,0,.69.26L103,59a3,3,0,0,0,.58-.34,4.33,4.33,0,0,0,.93-1,8.72,8.72,0,0,0,.68-1.19c.1-.21.17-.42.26-.63a1.63,1.63,0,0,0,.13-.69,1.59,1.59,0,0,0-.52-1.08,2.63,2.63,0,0,0-1.06-.52,3.44,3.44,0,0,0-.84-.1,5.12,5.12,0,0,0-.56,0Zm1.89,1.89v0Zm-2.7,7.31,0,.05,0-.05Zm-1.53.81,0,.08,0-.08Z"/><path class="d" d="M103.61,94a4.79,4.79,0,0,0-1,.37,7,7,0,0,0-1,.56,10.27,10.27,0,0,0-1.58,1.44,21.05,21.05,0,0,0-1.51,1.88,3.22,3.22,0,0,0-.38.53,2,2,0,0,0-.17.72,1,1,0,0,0,.18.66,1.58,1.58,0,0,0,.59.46,2.38,2.38,0,0,0,.63.18,2.84,2.84,0,0,0,.92,0,4.15,4.15,0,0,0,.76-.23c.3-.1.59-.23.88-.36a10,10,0,0,0,1.5-.91,16.4,16.4,0,0,0,1.4-1.09l.2-.17a.59.59,0,0,0,0,.14c.06.55.15,1.08.23,1.62l0-.18c.12.94.3,1.88.43,2.83.08.71.13,1.43.16,2.16a14.74,14.74,0,0,1-.08,2.3,9.45,9.45,0,0,1-.54,2.09,4.2,4.2,0,0,1-1.32,1.81l-.26.16-.21,0a2.9,2.9,0,0,1-.51,0,3.13,3.13,0,0,1-.68-.2,4.85,4.85,0,0,1-.74-.4c-.23-.15-.46-.31-.68-.48s-.71-.58-1-.89a.86.86,0,0,0-.58-.24.82.82,0,0,0-.58.24.83.83,0,0,0,0,1.15c.43.39.86.76,1.32,1.11a7.79,7.79,0,0,0,1.14.76,6.58,6.58,0,0,0,.72.32,3,3,0,0,0,.65.2,3.5,3.5,0,0,0,1.51,0,1.93,1.93,0,0,0,.65-.3,4.09,4.09,0,0,0,.56-.45,6.08,6.08,0,0,0,1.52-2.36,10.28,10.28,0,0,0,.59-2.8,16.51,16.51,0,0,0,0-2.9,29.81,29.81,0,0,0-.39-3c-.08-.49-.16-1-.23-1.46s-.15-.95-.21-1.43c0,.06,0,.12,0,.18a11.69,11.69,0,0,1-.09-1.19v-.23l.14-.25a3.2,3.2,0,0,0,.17-.43,2.22,2.22,0,0,0,0-.45.65.65,0,0,0-.32-.57,2,2,0,0,0-.1-.21,1.63,1.63,0,0,0-.75-.62,2.39,2.39,0,0,0-1-.22,3.91,3.91,0,0,0-1,.13Zm1.31.86.3.08a1.18,1.18,0,0,1,.19.11,1.37,1.37,0,0,0-.17.23,1.48,1.48,0,0,0-.12.29,2.27,2.27,0,0,0-.08.59v.17a9.07,9.07,0,0,1-.82.82q-.51.48-1,.9c-.34.25-.68.49-1,.71a7.59,7.59,0,0,1-1.09.58,6.29,6.29,0,0,1-1,.33h-.34a1.7,1.7,0,0,1-.37-.1l-.1-.06v-.09a.57.57,0,0,1,0-.14,3.39,3.39,0,0,1,.34-.5c0-.08.11-.15.17-.23l.43-.61a13.87,13.87,0,0,1,.93-1.1,10.23,10.23,0,0,1,1.08-1,6.43,6.43,0,0,1,1.29-.76,4.61,4.61,0,0,1,.75-.21,3.18,3.18,0,0,1,.69,0Zm.73.47Zm-7,2.87,0,0,0,0Zm2.49,1.09-.1.05.1-.05Zm-2,.15v.07h0a.17.17,0,0,1,0-.07Zm6.58,2.83v0Z"/></svg>